<?xml version="1.0" encoding="UTF-8" standalone="no"?>
<!DOCTYPE svg PUBLIC "-//W3C//DTD SVG 1.1//EN" "http://www.w3.org/Graphics/SVG/1.1/DTD/svg11.dtd">
<svg xmlns="http://www.w3.org/2000/svg">
<metadata/>
<defs>
<font id="fontawesomeregular" horiz-adv-x="905">
<font-face units-per-em="1000" ascent="800" descent="-200"/>
<missing-glyph horiz-adv-x="500"/>
<glyph unicode="◼" horiz-adv-x="500" d="M0 0z"/>
<glyph unicode="" d="M895 806q12 -27 -9 -48l-347 -342l1 -405l210 -40l1 -1h2q14 -5 22.5 -16.5t8.5 -25.5q0 -19 -13 -32t-32 -13h-541q-18 0 -31 13.5t-13 32.5v3q0 32 30 42h1q1 1 2 1l198 38l-1 404l-363 340q-22 22 -10 48q12 28 41 28h802q29 0 41 -27zM854 790l-802 -3l364 -338 q13 -13 13 -32v-405q0 -32 -30 -42h-1l-2 -1l-197 -38v-2h531l-202 38q-1 1 -3 1q-30 10 -30 42v408q0 18 12 30zM530 592q-19 9 -28 28q-22 46 12 80.5t81 12.5q19 -9 28 -28q22 -47 -12.5 -81t-80.5 -12z"/>
<glyph unicode="" d="M31 33q0 61 53 99.5t120 38.5q29 0 57 -8v441q0 33 34 44q13 3 56 16l101 30l122 35q62 19 212 61q36 10 42 10q20 0 33.5 -13t13.5 -33v-583q0 -61 -53 -99.5t-120 -38.5t-119.5 38.5t-52.5 99.5t52 99.5t120 38.5q24 0 58 -8v304l-384 -110v-462q0 -61 -52.5 -99.5 t-119.5 -38.5t-120 38.5t-53 99.5z"/>
<glyph unicode="" d="M611 810q121 0 207.5 -86t86.5 -208q0 -121 -86.5 -207t-207.5 -86q-108 0 -190 71l-50 -50q17 -28 13.5 -62t-27.5 -59l-72 -72l-117 -116q-27 -29 -69 -29t-69 29q-29 27 -29 69t29 69l188 188q25 25 59 28.5t62 -13.5l50 50q-71 82 -71 190q0 121 86 207.5t207 86.5z M611 268q103 0 176 73t73 175q0 103 -73 176t-176 73q-102 0 -175 -73t-73 -176q0 -102 73 -175t175 -73zM136 -33l189 188q15 15 15 37t-15 38q-16 15 -38 15t-37 -15l-188 -189q-16 -16 -16 -37t16 -37t37 -16t37 16z"/>
<glyph unicode="" d="M12 720h882q23 0 40 -16.5t17 -39.5v-612q0 -23 -17 -39.5t-40 -16.5h-882q-23 0 -40 16.5t-17 39.5v612q0 23 17 39.5t40 16.5zM12 675h-2l443 -443l443 443h-2h-882zM274 347l-274 273v-547zM906 620l-274 -273l274 -274v547zM874 41l-274 274l-131 -131q-6 -7 -16 -7 t-16 7l-131 131l-274 -274h842z"/>
<glyph unicode="" d="M681 811q104 0 175.5 -76t71.5 -185q0 -257 -458 -637l-1 -1q-9 -7 -16 -7q-3 0 -9 2q-3 1 -8 6q-458 380 -458 637q0 109 71.5 185t175.5 76q56 0 105.5 -20.5t72.5 -39t50 -46.5q27 28 50 46.5t72.5 39t105.5 20.5z"/>
<glyph unicode="" d="M925 480q13 -42 -20 -67l-226 -172l87 -280q8 -29 -9 -52q-18 -23 -45 -23q-18 0 -33 12l-226 172l-226 -172q-19 -13 -41.5 -9.5t-36.5 21.5q-18 24 -8 51l86 278l-227 174q-32 25 -19 67q6 18 20.5 29t31.5 11h280l87 278q5 17 19.5 28t32.5 11q19 0 34 -11.5t20 -29.5 l87 -276h280q17 0 31.5 -11t20.5 -29z"/>
<glyph unicode="" d="M925 480q13 -42 -20 -67l-226 -172l87 -280q8 -29 -9 -52q-18 -23 -45 -23q-18 0 -33 12l-226 172l-226 -172q-19 -13 -41.5 -9.5t-36.5 21.5q-18 24 -8 51l86 278l-227 174q-32 25 -19 67q6 18 20.5 29t31.5 11h280l87 278q5 17 19.5 28t32.5 11q19 0 34 -11.5t20 -29.5 l87 -276h280q17 0 31.5 -11t20.5 -29zM639 268l239 181q7 5 4 17q-4 9 -9 9h-297q-16 0 -21 15l-92 293q-3 9 -11 9q-6 0 -9 -7l-92 -295q-5 -15 -21 -15h-297q-5 0 -9 -9q-3 -12 4 -17l239 -184q13 -9 8 -25l-91 -292q-2 -5 1 -11q6 -8 14 -3l240 183q7 5 14 5t14 -5 l240 -183q7 -5 14 2q3 7 1 12l-91 295q-5 15 8 25z"/>
<glyph unicode="" d="M880 102q12 -38 -19 -61q-180 -136 -408 -136t-408 136q-31 23 -19 61q35 107 118.5 183t193.5 104q-51 31 -81 82.5t-30 112.5q0 94 66 160.5t160 66.5t160 -66.5t66 -160.5q0 -61 -30 -112.5t-81 -82.5q110 -28 193.5 -104t118.5 -183zM272 584q0 -75 53 -128t128 -53 t128 53t53 128t-53 128t-128 53t-128 -53t-53 -128zM833 77q6 4 4 11q-39 121 -145 195.5t-239 74.5t-239 -74.5t-145 -195.5q-2 -7 4 -11q165 -126 380 -126t380 126z"/>
<glyph unicode="" d="M1 37v642q0 23 16.5 39.5t39.5 16.5h793q23 0 39.5 -16.5t16.5 -39.5v-642q0 -23 -16.5 -39.5t-39.5 -16.5h-793q-23 0 -39.5 16.5t-16.5 39.5zM57 660v-76q0 -8 5.5 -13.5t13.5 -5.5h75q19 0 19 19v76q0 19 -19 19h-75q-8 0 -13.5 -5.5t-5.5 -13.5zM227 660v-252 q0 -8 5.5 -13.5t13.5 -5.5h414q8 0 13.5 5.5t5.5 13.5v252q0 8 -5.5 13.5t-13.5 5.5h-414q-8 0 -13.5 -5.5t-5.5 -13.5zM736 660v-76q0 -8 5.5 -13.5t13.5 -5.5h75q8 0 14 5.5t6 13.5v76q0 8 -6 13.5t-14 5.5h-75q-19 0 -19 -19zM57 484v-76q0 -8 5.5 -13.5t13.5 -5.5h75 q8 0 13.5 5.5t5.5 13.5v76q0 19 -19 19h-75q-8 0 -13.5 -5.5t-5.5 -13.5zM736 484v-76q0 -8 5.5 -13.5t13.5 -5.5h75q8 0 14 5.5t6 13.5v76q0 8 -6 13.5t-14 5.5h-75q-8 0 -13.5 -5.5t-5.5 -13.5zM57 308v-76q0 -8 5.5 -13.5t13.5 -5.5h75q8 0 13.5 5.5t5.5 13.5v76 q0 19 -19 19h-75q-8 0 -13.5 -5.5t-5.5 -13.5zM227 308v-252q0 -8 5.5 -13.5t13.5 -5.5h414q8 0 13.5 5.5t5.5 13.5v252q0 8 -5.5 13.5t-13.5 5.5h-414q-8 0 -13.5 -5.5t-5.5 -13.5zM736 308v-76q0 -8 5.5 -13.5t13.5 -5.5h75q8 0 14 5.5t6 13.5v76q0 8 -6 13.5t-14 5.5h-75 q-8 0 -13.5 -5.5t-5.5 -13.5zM57 132v-76q0 -8 5.5 -13.5t13.5 -5.5h75q19 0 19 19v76q0 19 -19 19h-75q-8 0 -13.5 -5.5t-5.5 -13.5zM736 132v-76q0 -8 5.5 -13.5t13.5 -5.5h75q8 0 14 5.5t6 13.5v76q0 8 -6 13.5t-14 5.5h-75q-19 0 -19 -19z"/>
<glyph unicode="" d="M1 434v264q0 15 11 26t27 11h339q16 0 27 -11t11 -26v-264q0 -16 -11 -27t-27 -11h-339q-17 0 -27.5 11t-10.5 27zM491 434v264q0 15 10.5 26t26.5 11h340q15 0 26.5 -11t11.5 -26v-264q0 -16 -11.5 -27t-26.5 -11h-340q-16 0 -26.5 11t-10.5 27zM1 19v263q0 17 11 28 t27 11h339q16 0 27 -11.5t11 -27.5v-263q0 -16 -11 -27t-27 -11h-339q-16 0 -27 11t-11 27zM491 19v263q0 17 10.5 28t26.5 11h340q15 0 26.5 -11.5t11.5 -27.5v-263q0 -16 -11.5 -27t-26.5 -11h-340q-16 0 -26.5 11t-10.5 27z"/>
<glyph unicode="" d="M1 564v134q0 15 11 26t27 11h176q15 0 26 -11t11 -26v-134q0 -16 -11 -27t-26 -11h-176q-16 0 -27 11t-11 27zM328 564v134q0 15 10.5 26t26.5 11h177q15 0 26 -11t11 -26v-134q0 -16 -11 -27t-26 -11h-177q-16 0 -26.5 11t-10.5 27zM654 564v134q0 15 11 26t27 11h176 q15 0 26.5 -11t11.5 -26v-134q0 -16 -11.5 -27t-26.5 -11h-176q-16 0 -27 11t-11 27zM1 303v110q0 16 10.5 26.5t27.5 10.5h176q15 0 26 -10.5t11 -26.5v-110q0 -16 -11 -27t-26 -11h-176q-17 0 -27.5 10.5t-10.5 27.5zM328 303v110q0 16 10.5 26.5t26.5 10.5h177 q15 0 26 -10.5t11 -26.5v-110q0 -16 -11 -27t-26 -11h-177q-16 0 -26.5 11t-10.5 27zM654 303v110q0 16 11 26.5t27 10.5h176q15 0 26.5 -10.5t11.5 -26.5v-110q0 -16 -11.5 -27t-26.5 -11h-176q-16 0 -27 11t-11 27zM1 19v133q0 16 11 26.5t27 10.5h176q15 0 26 -10.5 t11 -26.5v-133q0 -16 -11 -27t-26 -11h-176q-16 0 -27 11t-11 27zM328 19v133q0 16 10.5 26.5t26.5 10.5h177q15 0 26 -10.5t11 -26.5v-133q0 -16 -11 -27t-26 -11h-177q-16 0 -26.5 11t-10.5 27zM654 19v133q0 16 11 26.5t27 10.5h176q15 0 26.5 -11t11.5 -26v-133 q0 -16 -11.5 -27t-26.5 -11h-176q-16 0 -27 11t-11 27z"/>
<glyph unicode="" d="M1 564v134q0 15 11 26t27 11h146q15 0 26 -11t11 -26v-134q0 -16 -11 -27t-26 -11h-146q-16 0 -27 11t-11 27zM297 564v134q0 15 11 26t27 11h533q15 0 26.5 -11t11.5 -26v-134q0 -16 -11.5 -27t-26.5 -11h-533q-16 0 -27 11t-11 27zM1 303v110q0 16 10.5 26.5t27.5 10.5 h146q15 0 26 -10.5t11 -26.5v-110q0 -16 -11 -27t-26 -11h-146q-17 0 -27.5 10.5t-10.5 27.5zM297 303v110q0 16 11 26.5t27 10.5h533q15 0 26.5 -10.5t11.5 -26.5v-110q0 -16 -11.5 -27t-26.5 -11h-533q-16 0 -27 11t-11 27zM1 19v133q0 16 11 26.5t27 10.5h146 q15 0 26 -10.5t11 -26.5v-133q0 -16 -11 -27t-26 -11h-146q-16 0 -27 11t-11 27zM297 19v133q0 16 11 26.5t27 10.5h533q15 0 26.5 -11t11.5 -26v-133q0 -16 -11.5 -27t-26.5 -11h-533q-16 0 -27 11t-11 27z"/>
<glyph unicode="" d="M453 811q187 0 320 -132.5t133 -320.5t-133 -320.5t-320 -132.5t-320 132.5t-133 320.5t133 320.5t320 132.5zM453 -49q169 0 288 119t119 288t-119 288t-288 119t-288 -119t-119 -288t119 -288t288 -119zM385 254l256 256q16 16 32 0t0 -32l-272 -272q-6 -6 -16 -6 q-9 0 -16 6l-136 136q-16 16 0 32t32 0z"/>
<glyph unicode="" d="M485 358l408 -409q16 -16 0 -32q-7 -7 -16 -7q-7 0 -16 7l-408 408l-408 -408q-9 -7 -16 -7q-9 0 -16 7q-16 16 0 32l408 409l-408 408q-7 6 -7 15.5t7 16.5q16 14 32 0l408 -408l408 408q16 14 32 0q7 -7 7 -16.5t-7 -15.5z"/>
<glyph unicode="" d="M2 434q0 156 111 265q113 111 265 111q157 0 266 -111t109 -265q0 -117 -62 -206l202 -203q11 -11 11 -26q0 -16 -11 -27l-53 -53q-11 -10 -26.5 -10t-26.5 10l-202 202q-92 -62 -207 -62q-154 0 -265 109q-111 111 -111 266zM153 434q0 -93 66 -159t159 -66q95 0 159 66 q66 66 66 159q0 92 -66 159q-63 66 -159 66q-93 0 -159 -66.5t-66 -158.5zM228 416v37q0 18 18 18h95v95q0 19 19 18h36q20 0 20 -18v-95h94q18 0 18 -18v-37q0 -8 -5.5 -14t-12.5 -6h-94v-93q0 -19 -20 -19h-36q-19 0 -19 19v93h-95q-18 0 -18 20z"/>
<glyph unicode="" d="M2 434q0 156 111 265q113 111 265 111q157 0 266 -111t109 -265q0 -117 -62 -206l202 -203q11 -11 11 -26q0 -16 -11 -27l-53 -53q-11 -10 -26.5 -10t-26.5 10l-202 202q-92 -62 -207 -62q-154 0 -265 109q-111 111 -111 266zM153 434q0 -93 66 -159t159 -66q95 0 159 66 q66 66 66 159q0 92 -66 159q-63 66 -159 66q-93 0 -159 -66.5t-66 -158.5zM228 416v37q0 18 18 18h264q18 0 18 -18v-37q0 -8 -5.5 -14t-12.5 -6h-264q-18 0 -18 20z"/>
<glyph unicode="" d="M385 381v407q0 9 6.5 16t16.5 7h90q9 0 16 -7t7 -16v-407q0 -9 -6.5 -15.5t-16.5 -6.5h-90q-9 0 -16 6.5t-7 15.5zM23 335q0 107 50 201.5t138 154.5q8 5 17.5 3t13.5 -9l52 -75q5 -8 3.5 -17t-9.5 -14q-61 -42 -95 -106t-34 -138q0 -123 86 -207q86 -86 207 -86t209 86 q86 84 86 207q0 74 -34 138t-95 106q-19 12 -6 31l51 75q14 17 32 6q88 -60 138 -154.5t50 -201.5q0 -177 -126 -303q-127 -127 -305 -127t-303 127q-126 126 -126 303z"/>
<glyph unicode="" d="M774 0v716q0 19 19 19h93q20 0 20 -19v-716q0 -19 -20 -19h-93q-19 0 -19 19zM581 0v489q0 19 18 19h94q8 0 14 -5.5t6 -13.5v-489q0 -8 -6 -13.5t-14 -5.5h-94q-7 0 -12.5 5.5t-5.5 13.5zM386 0v332q0 8 6 13.5t14 5.5h94q8 0 14 -5.5t6 -13.5v-332q0 -8 -6 -13.5 t-14 -5.5h-94q-8 0 -14 5.5t-6 13.5zM193 0v213q0 8 6 13.5t14 5.5h94q8 0 13.5 -5.5t5.5 -13.5v-213q0 -8 -5.5 -13.5t-13.5 -5.5h-94q-8 0 -14 5.5t-6 13.5zM1 0v128q0 8 5.5 13.5t13.5 5.5h94q7 0 12.5 -5.5t5.5 -13.5v-128q0 -19 -18 -19h-94q-19 0 -19 19z"/>
<glyph unicode="" d="M808 451l51 -9q19 -3 33 -19t14 -36v-58q0 -20 -14 -36t-34 -19l-50 -9q-12 -1 -25 -12t-18 -24t-4 -29.5t8 -26.5l30 -42q12 -17 10 -38t-16 -35l-40 -40q-14 -14 -35.5 -15.5t-37.5 9.5l-42 30q-23 16 -56 4q-13 -5 -24 -18t-12 -25l-9 -50q-3 -20 -19 -34t-36 -14h-58 q-20 0 -36 14t-19 34l-9 50q-1 12 -12 25t-24 18t-29.5 4t-26.5 -8l-42 -30q-16 -11 -37.5 -9.5t-35.5 15.5l-40 40q-14 14 -16 35t10 38l30 42q7 10 8 26.5t-4 29.5t-18 24t-25 12l-51 9q-19 3 -33 19t-14 36v58q0 20 14 36t34 19l50 9q12 1 25 12t18 24t4 29.5t-8 26.5 l-30 42q-12 17 -10 38t16 35l40 40q14 14 35.5 15.5t37.5 -9.5l42 -30q23 -16 56 -4q13 5 24 18t12 25l9 50q3 20 19 34t36 14h58q20 0 36 -14t19 -34l9 -50q1 -12 12 -25t24 -18t29.5 -4t26.5 8l42 30q16 11 37.5 9.5t35.5 -15.5l40 -40q14 -14 16 -35t-10 -38l-30 -42 q-7 -10 -8 -26.5t4 -29.5t18 -24t25 -12zM860 329v58q0 9 -9 11l-51 8q-25 4 -46 23t-31 41q-9 19 -7 48.5t17 50.5l29 42q6 8 -1 15l-40 40q-7 7 -15 1l-42 -29q-18 -14 -47 -16.5t-52 6.5q-22 10 -41 31t-23 46l-8 51q-2 9 -11 9h-58q-9 0 -11 -9l-8 -51q-4 -25 -23 -46 t-41 -31q-17 -7 -41 -7q-35 0 -58 17l-42 29q-8 6 -15 -1l-40 -40q-7 -7 -1 -15l29 -42q15 -21 17 -50.5t-7 -48.5q-10 -22 -31 -41t-46 -23l-51 -8q-9 -2 -9 -11v-58q0 -9 9 -11l51 -8q25 -4 46 -23t31 -41q9 -19 7 -48.5t-17 -50.5l-29 -42q-6 -8 1 -15l40 -40q7 -7 15 -1 l42 29q23 17 58 17q24 0 41 -7q22 -10 41 -31t23 -46l8 -51q2 -9 11 -9h58q9 0 11 9l8 51q4 25 23 46t41 31q17 7 41 7q35 0 58 -17l42 -29q8 -6 15 1l40 40q7 7 1 15l-29 42q-15 21 -17 50.5t7 48.5q10 22 31 41t46 23l51 8q9 2 9 11zM453 539q75 0 128 -53t53 -128 t-53 -128t-128 -53t-128 53t-53 128t53 128t128 53zM453 222q56 0 96 40t40 96t-40 96t-96 40t-96 -40t-40 -96t40 -96t96 -40z"/>
<glyph unicode="" d="M611 685h159q9 0 15.5 -6.5t6.5 -15.5q0 -10 -6.5 -16.5t-15.5 -6.5h-23v-643q0 -23 -16.5 -40t-39.5 -17h-476q-23 0 -39.5 17t-16.5 40v643h-23q-9 0 -15.5 6.5t-6.5 16.5q0 9 6.5 15.5t15.5 6.5h159v34q0 23 16.5 40t39.5 17h204q23 0 39.5 -17t16.5 -40v-34zM340 685 h226v34q0 11 -11 11h-204q-11 0 -11 -11v-34zM702 -3v632q0 11 -11 11h-476q-11 0 -11 -11v-632q0 -11 11 -11h476q11 0 11 11zM317 550q10 0 16.5 -6.5t6.5 -16.5v-430q0 -9 -6.5 -16t-16.5 -7q-9 0 -15.5 7t-6.5 16v430q0 10 6.5 16.5t15.5 6.5zM453 550q10 0 16.5 -6.5 t6.5 -16.5v-430q0 -9 -6.5 -16t-16.5 -7t-16.5 7t-6.5 16v430q0 10 6.5 16.5t16.5 6.5zM589 550q10 0 16.5 -6.5t6.5 -16.5v-430q0 -9 -6.5 -16t-16.5 -7q-9 0 -15.5 7t-6.5 16v430q0 10 6.5 16.5t15.5 6.5z"/>
<glyph unicode="" d="M492 804l397 -375q17 -15 17 -38q0 -24 -17 -39l-16 -15q-17 -15 -39.5 -15t-38.5 15l-3 2v-391q0 -23 -16.5 -39.5t-39.5 -16.5h-566q-23 0 -39.5 16.5t-16.5 39.5v391l-3 -2q-16 -15 -39 -15t-39 15l-16 15q-17 15 -17 39q0 23 17 38l397 375q16 15 39 15t39 -15z M842 370l16 15q2 2 2 6q0 3 -2 5l-397 375q-3 3 -8 3t-8 -3l-397 -375q-2 -2 -2 -5q0 -4 2 -6l16 -15q8 -8 16 0l357 338q16 14 32 0l357 -338q8 -8 16 0zM747 382l-294 278l-294 -278v-434q0 -11 11 -11h170v192q0 23 16.5 40t39.5 17h114q23 0 39.5 -17t16.5 -40v-192h170 q11 0 11 11v434zM521 -63v192q0 12 -11 12h-114q-11 0 -11 -12v-192h136z"/>
<glyph unicode="" d="M91 -49v814q0 18 13.5 31.5t32.5 13.5h362q19 0 41.5 -9.5t35.5 -22.5l207 -207q32 -32 32 -77v-543q0 -19 -13.5 -32.5t-31.5 -13.5h-633q-19 0 -32.5 13.5t-13.5 32.5zM182 -4h542v407h-270q-18 0 -31 13.5t-13 32.5v270h-228v-723zM500 494h224q0 11 -6 14l-206 205 q0 2 -5 4l-7 2v-225zM249 256v68h408v-68h-408zM249 97v68h408v-68h-408z"/>
<glyph unicode="" d="M453 811q187 0 320 -133t133 -320t-133 -320t-320 -133t-320 132.5t-133 320.5t133 320.5t320 132.5zM453 -49q169 0 288 119t119 288t-119 288t-288 119t-288 -119t-119 -288t119 -288t288 -119zM475 372l125 -62q20 -11 10 -30q-6 -13 -20 -13q-6 0 -10 3l-137 68 q-13 6 -13 20v316q0 10 6.5 16.5t16.5 6.5q9 0 15.5 -6.5t6.5 -16.5v-302z"/>
<glyph unicode="" d="M4 0l290 716q8 17 26 17h95l-4 -83h84l-4 83h95q18 0 26 -17l290 -716q3 -7 -0.5 -12t-11.5 -5h-361l-13 250h-126l-13 -250h-360q-8 0 -11.5 5t-1.5 12zM397 372h112l-10 202h-92z"/>
<glyph unicode="" d="M431 502v309q0 9 6.5 15.5t15.5 6.5t15.5 -6.5t6.5 -15.5v-306l86 95q15 17 31 1q15 -17 0 -32l-123 -136h-1q-4 -4 -7 -5q-2 -2 -8 -2q-5 0 -8 2q-2 0 -4 2l-3 2l-135 136q-15 17 0 32q15 16 30 1zM824 643l81 -327q1 -1 1 -3v-374q0 -23 -16 -39.5t-38 -16.5h-798 q-22 0 -38 16.5t-16 39.5v374q0 2 1 3l67 327q1 22 16.5 38t37.5 16h242q8 0 14.5 -6.5t6.5 -15.5q0 -10 -6.5 -16.5t-14.5 -6.5h-242q-11 0 -11 -11v-3l-64 -303h812l-78 303v3q0 11 -11 11h-228q-8 0 -14.5 6.5t-6.5 16.5q0 9 6.5 15.5t14.5 6.5h228q22 0 37.5 -15.5 t16.5 -38.5zM862 290h-818v-351q0 -11 10 -11h798q10 0 10 11v351zM593 64h-259q-22 0 -37.5 16.5t-15.5 39.5v23q0 23 15.5 40t37.5 17h259q22 0 38 -17t16 -40v-23q0 -23 -16 -39.5t-38 -16.5zM324 143v-23q0 -11 10 -11h259q11 0 11 11v23q0 11 -11 11h-259 q-10 0 -10 -11z"/>
<glyph unicode="" d="M36 532q35 84 97 146q134 132 320 132t320 -132q132 -132 132 -320q0 -92 -34.5 -174.5t-97.5 -145.5q-133 -133 -320 -133t-320 133q-63 63 -97.5 145.5t-34.5 174.5t35 174zM161 235q24 -58 69 -101q91 -93 223 -93q131 0 224 93t93 224q0 130 -93 223q-91 93 -224 93 q-132 0 -223 -93q-93 -93 -93 -223q0 -66 24 -123zM235 343q6 15 21 15h118v202q0 9 6.5 16t15.5 7h114q9 0 15.5 -6.5t6.5 -16.5v-202h118q16 0 21.5 -14t-5.5 -25l-197 -196q-7 -6 -16 -6t-16 6l-196 196q-12 12 -6 24z"/>
<glyph unicode="" d="M36 532q35 84 97 146q134 132 320 132t320 -132q132 -132 132 -320q0 -92 -34.5 -174.5t-97.5 -145.5q-133 -133 -320 -133t-320 133q-63 63 -97.5 145.5t-34.5 174.5t35 174zM161 235q24 -58 69 -101q91 -93 223 -93q131 0 224 93t93 224q0 130 -93 223t-224 93 q-132 0 -223 -93q-93 -93 -93 -223q0 -66 24 -123zM235 372q-6 12 6 24l196 196q7 6 16 6t16 -6l197 -196q11 -10 5.5 -24t-21.5 -14h-118v-204q0 -9 -6.5 -15.5t-15.5 -6.5h-114q-9 0 -15.5 6t-6.5 16v204h-118q-15 0 -21 14z"/>
<glyph unicode="" d="M1 19v284q0 41 15 72l139 326q6 14 22 24t31 10h490q15 0 31 -10t22 -24l139 -326q16 -36 16 -72v-284q0 -16 -11.5 -27t-26.5 -11h-829q-16 0 -27 11t-11 27zM551 208l58 114h180q0 1 -0.5 2.5t-0.5 2.5q0 2 -1 4l-126 292h-416l-126 -293q-1 -2 -1 -3q0 -3 -1 -5h190 l56 -114h188z"/>
<glyph unicode="" d="M453 811q187 0 320 -132.5t133 -320.5t-133 -320.5t-320 -132.5t-320 132.5t-133 320.5t133 320.5t320 132.5zM353 512v-308l272 154z"/>
<glyph unicode="" d="M906 392q14 0 24 -10t10 -24q0 -132 -65.5 -244t-177.5 -177.5t-244 -65.5t-244 65.5t-177.5 177.5t-65.5 244t65.5 244t177.5 177.5t244 65.5q117 0 214.5 -52t162.5 -148v98q0 14 10 24t24 10t24 -10t10 -24v-215q0 -14 -10 -24t-24 -10h-147q-14 0 -24 10t-10 24 t10 24t24 10h84q-55 104 -144.5 159.5t-203.5 55.5q-173 0 -296 -123t-123 -296t123 -296t296 -123t296 123t123 296q0 14 10 24t24 10z"/>
<glyph unicode="" d="M883 743q9 0 16 -6.5t7 -16.5v-181q0 -9 -7 -16t-16 -7h-181q-10 0 -16.5 7t-6.5 16t6.5 16t16.5 7h122q-57 95 -152.5 149.5t-207.5 54.5q-173 0 -295.5 -123t-122.5 -296q0 -10 -7 -16.5t-16 -6.5q-10 0 -16.5 6.5t-6.5 16.5q0 191 136 327.5t328 136.5 q121 0 227.5 -60t168.5 -163v132q0 10 7 16.5t16 6.5zM883 392q9 0 16 -6.5t7 -16.5q0 -191 -136 -327.5t-328 -136.5q-121 0 -227.5 60t-168.5 163v-132q0 -10 -7 -16.5t-16 -6.5t-16 6.5t-7 16.5v181q0 9 7 16t16 7h181q10 0 16.5 -7t6.5 -16t-6.5 -16t-16.5 -7h-122 q57 -95 152.5 -149.5t207.5 -54.5q173 0 295.5 123t122.5 296q0 10 6.5 16.5t16.5 6.5z"/>
<glyph unicode="" d="M1 37v642q0 23 16.5 39.5t39.5 16.5h793q23 0 39.5 -16.5t16.5 -39.5v-642q0 -23 -16.5 -39.5t-39.5 -16.5h-793q-23 0 -39.5 16.5t-16.5 39.5zM76 56h754v528h-754v-528zM151 453v37q0 19 19 19h76q8 0 13.5 -5.5t5.5 -13.5v-37q0 -8 -5.5 -13.5t-13.5 -5.5h-76 q-19 0 -19 19zM340 453v37q0 8 5.5 13.5t12.5 5.5h378q19 0 19 -19v-37q0 -19 -19 -19h-378q-18 0 -18 19zM151 302v37q0 19 19 19h76q8 0 13.5 -6t5.5 -13v-37q0 -8 -5.5 -14t-13.5 -6h-76q-19 0 -19 20zM340 302v37q0 8 5.5 13.5t12.5 5.5h378q19 0 19 -19v-37 q0 -20 -19 -20h-378q-7 0 -12.5 6t-5.5 14zM151 151v37q0 19 19 19h76q8 0 13.5 -5.5t5.5 -13.5v-37q0 -8 -5.5 -13.5t-13.5 -5.5h-76q-19 0 -19 19zM340 151v37q0 8 5.5 13.5t12.5 5.5h378q19 0 19 -19v-37q0 -19 -19 -19h-378q-8 0 -13 5.5t-5 13.5z"/>
<glyph unicode="" d="M747 479h12q24 0 40 -13t16 -36v-476q0 -24 -16.5 -44t-39.5 -20h-611q-23 0 -40 20t-17 44v476q0 23 16 36t41 13h11v57q0 120 86 205t208 85t208 -85t86 -205v-57zM770 -53v475q0 11 -11 11h-57v103q0 101 -73 172.5t-176 71.5t-176 -71.5t-73 -172.5v-103h-56 q-12 0 -12 -11v-475q0 -11 12 -11h611q11 0 11 11zM453 735q83 0 143.5 -58.5t60.5 -138.5v-105h-408v105q0 80 60.5 138.5t143.5 58.5zM611 479v59q0 62 -47 107t-111 45t-111 -45t-47 -107v-59h316zM454 343q46 0 78.5 -32.5t32.5 -78.5q0 -48 -36 -82l34 -93 q5 -11 -3 -21q-7 -10 -18 -10h-177q-11 0 -18 10q-6 9 -3 21l35 93q-36 33 -36 82q0 46 32.5 78.5t78.5 32.5zM509 71l-29 79q-5 18 9 27q30 19 30 55q0 27 -19 46.5t-46 19.5q-28 0 -47 -19.5t-19 -46.5q0 -36 30 -55q16 -10 9 -27l-29 -79h111z"/>
<glyph unicode="" d="M759 778l121 -345q9 -28 -8 -52q-30 -39 -66 -63.5t-65 -35t-72.5 -12t-68 1t-72.5 8.5q-54 7 -83 9t-73.5 -1t-81 -21t-70.5 -52l96 -280q7 -21 -14 -28q-6 -2 -7 -2q-17 0 -22 16l-101 293l-131 381v2l-17 48q-7 21 14 28q9 4 17.5 -0.5t11.5 -13.5l5 -15 q50 44 109.5 63t110 16t105.5 -7q57 -4 104 -6t94.5 18t86.5 65q17 20 43 15t34 -30zM836 409q3 3 1 10l-121 344q-28 -33 -62 -54t-61 -30.5t-68.5 -12t-63.5 -1t-68 5.5q-57 4 -105.5 6.5t-101.5 -17t-98 -63.5l116 -335q38 33 79.5 51t89.5 20.5t77.5 0.5t83.5 -9 q38 -5 57 -7t52 -3.5t53.5 3.5t47 15t49 29t43.5 47z"/>
<glyph unicode="" d="M0 340q0 77 38.5 149.5t106.5 129.5q65 55 146 85.5t162 30.5q80 0 161.5 -31t146.5 -85q68 -57 106.5 -130t38.5 -150q0 -84 -37 -166l-13 -28l-82 -12q-13 -51 -53 -82.5t-92 -31.5v-20q0 -7 -5.5 -12.5t-13.5 -5.5h-38q-8 0 -13.5 5.5t-5.5 12.5v340q0 7 5.5 13 t13.5 6h38q7 0 13 -6t6 -13v-19q41 0 75 -20.5t55 -54.5l18 3q24 63 11 131q-16 89 -107 159q-49 39 -109.5 61.5t-118.5 22.5q-123 0 -228 -83q-111 -87 -111 -199q0 -48 15 -92l18 -3q21 34 55.5 54.5t74.5 20.5v19q0 7 5.5 13t13.5 6h38q7 0 12.5 -5.5t5.5 -13.5v-340 q0 -7 -5 -12.5t-13 -5.5h-38q-7 0 -13 5.5t-6 12.5v20q-53 0 -93.5 32.5t-51.5 81.5l-82 12l-13 28q-37 82 -37 167z"/>
<glyph unicode="" d="M125 219v277q0 11 8.5 19.5t19.5 8.5h305l237 237q35 37 60.5 26.5t25.5 -62.5v-735q0 -52 -25 -62.5t-61 26.5l-237 237h-305q-11 0 -19.5 8t-8.5 20z"/>
<glyph unicode="" d="M-11 219v277q0 11 8.5 19.5t19.5 8.5h305l236 237q36 37 61.5 26.5t25.5 -62.5v-735q0 -52 -25 -62.5t-62 26.5l-236 237h-305q-11 0 -19.5 8t-8.5 20zM762 60q-21 11 -27 34.5t5 44.5q61 104 61 219q0 114 -61 218q-11 21 -5 44.5t27 34.5q22 12 44.5 6.5t35.5 -27.5 q75 -132 75 -276q0 -145 -75 -277q-16 -30 -51 -30q-14 0 -29 9z"/>
<glyph unicode="" d="M744 -15q-13 8 -16.5 23.5t5.5 28.5q97 149 97 319q0 175 -97 318q-8 14 -5 29.5t16 23.5t28.5 5t23.5 -15q110 -166 110 -361q0 -194 -110 -360q-8 -17 -31 -17q-12 0 -21 6zM624 74q-13 7 -16.5 23t4.5 29q67 107 67 230t-67 230q-8 13 -4.5 29t16.5 23q14 9 29 6 t24 -17q77 -127 77 -271q0 -146 -78 -270q-10 -18 -32 -18q-11 0 -20 6zM1 266v180q0 8 5.5 13t12.5 5h198l154 154q23 24 39.5 17.5t16.5 -40.5v-478q0 -34 -16.5 -40.5t-39.5 17.5l-154 154h-198q-7 0 -12.5 5t-5.5 13zM503 163q-13 7 -17.5 22.5t3.5 28.5q39 69 39 142 t-39 142q-8 14 -3.5 29.5t17.5 22.5q14 7 29 3.5t23 -17.5q49 -87 49 -180t-49 -180q-10 -19 -33 -19q-10 0 -19 6z"/>
<glyph unicode="" d="M0 399v411h411v-411h-411zM494 399v411h411v-411h-411zM82 481h247v247h-247v-247zM576 481h247v247h-247v-247zM164 563v81h83v-81h-83zM658 563v81h81v-81h-81zM0 -95v411h411v-411h-411zM494 -95v411h245v-82h84v82h82v-247h-247v82h-82v-246h-82zM82 -13h247v247 h-247v-247zM164 69v83h83v-83h-83zM658 -95v82h81v-82h-81zM823 -95v82h82v-82h-82z"/>
<glyph unicode="" d="M1 -19v754h75v-754h-75zM112 -19v754h18v-754h-18zM175 -19v754h58v-754h-58zM268 -19v754h38v-754h-38zM352 -19v754h37v-754h-37zM444 -19v754h18v-754h-18zM498 -19v754h76v-754h-76zM600 -19v754h38v-754h-38zM692 -19v754h20v-754h-20zM776 -19v754h18v-754h-18z M830 -19v754h76v-754h-76z"/>
<glyph unicode="" d="M529 811h319q24 0 41 -17t17 -41v-319q0 -23 -17 -40l-472 -472q-17 -17 -40 -17q-24 0 -41 17l-319 319q-17 17 -17 41q0 25 17 40l472 472q15 17 40 17zM860 434v319q0 12 -12 12h-319q-5 0 -8 -3l-472 -472q-4 -4 -4 -8q0 -3 4 -9l319 -319q9 -7 17 0l471 472q4 3 4 8 zM668 675q42 0 72 -30t30 -72t-30 -72t-72 -30t-72 30t-30 72t30 72t72 30zM668 516q23 0 39.5 17t16.5 40t-16.5 40t-39.5 17t-40 -17t-17 -40t17 -40t40 -17z"/>
<glyph unicode="" d="M0 461v219q0 24 17 41.5t41 17.5h219q26 0 56 -12.5t44 -29.5l323 -360q17 -18 17 -41.5t-17 -40.5l-253 -253q-18 -18 -42 -18t-40 18l-324 360q-17 19 -29 47.5t-12 51.5zM382 738h84q25 0 54.5 -12t44.5 -30l323 -360q17 -19 17 -42q0 -24 -17 -41l-253 -253 q-17 -18 -41 -18t-42 18l-5 7l248 248q16 17 16 40.5t-16 41.5l-324 360q-28 34 -89 41zM94 588q0 -23 17 -40t40 -17t39.5 17t16.5 40t-16.5 40t-39.5 17t-40 -17t-17 -40z"/>
<glyph unicode="" d="M16 117q0 1 0.5 4t0.5 5q1 3 1 8q3 20 0 28q-4 13 8 28q11 14 13 18q26 42 40 95q2 5 0 16q-6 14 8 28q7 7 22 34q28 61 22 90q-3 21 11 29q26 20 46 84q5 18 5 24q1 5 -2 13q-7 12 9 29q19 20 29 47q24 69 79 55l-1 -2q18 5 28 5h406q41 0 62 -28.5t10 -68.5l-148 -472 q-9 -32 -40 -55t-66 -23h-465q-13 0 -20 -7q-7 -12 2 -32q8 -21 30 -37.5t44 -16.5h493q15 0 30 11t20 25l160 514q5 17 3 30q23 -8 31 -22q22 -28 10 -67l-147 -472q-10 -34 -40.5 -56.5t-66.5 -22.5h-493q-39 0 -79 28q-37 25 -52 64t-3 70zM319 615l-12 -40 q-3 -19 14 -19h320q18 0 27 19l12 40q4 21 -15 21h-319q-19 0 -27 -21zM283 495l-12 -39q-5 -21 14 -21h320q8 0 16 6t10 15l12 39q2 8 -1.5 14t-11.5 6h-321q-9 0 -17 -5.5t-9 -14.5z"/>
<glyph unicode="" d="M91 -28v772q0 28 19.5 47.5t46.5 19.5h592q28 0 47 -19.5t19 -47.5v-772q0 -28 -19 -47.5t-47 -19.5q-25 0 -46 19l-250 250l-249 -250q-21 -19 -47 -19q-27 0 -46.5 19.5t-19.5 47.5z"/>
<glyph unicode="" d="M151 339v359q0 15 11.5 26t27.5 11h319v-188q0 -24 17 -40.5t40 -16.5h189v-151h-604zM566 547v188l189 -188h-189zM1 0v170q0 46 33.5 79t79.5 33h679q46 0 79.5 -33t33.5 -79v-170q0 -19 -20 -19h-866q-19 0 -19 19zM132 94v-18q0 -8 5.5 -13.5t13.5 -5.5h604 q19 0 19 19v18q0 8 -5.5 13.5t-13.5 5.5h-604q-19 0 -19 -19z"/>
<glyph unicode="" d="M736 607h124q38 0 64.5 -26.5t26.5 -64.5v-452q0 -38 -26.5 -64.5t-64.5 -26.5h-814q-38 0 -64.5 26.5t-26.5 64.5v452q0 38 26.5 64.5t64.5 26.5h124q19 0 27 18l2 4l50 68q15 20 41 33t50 13h226q24 0 50 -13t41 -32l50 -69l2 -4q7 -18 27 -18zM906 64v452 q0 19 -13.5 32.5t-32.5 13.5h-124q-20 0 -39 12t-28 30l-49 66q-7 11 -23.5 19t-30.5 8h-226q-14 0 -30 -8t-24 -19l-49 -66q-9 -18 -28 -30t-39 -12h-124q-19 0 -32.5 -13.5t-13.5 -32.5v-452q0 -19 13.5 -32t32.5 -13h814q19 0 32.5 13t13.5 32zM453 539q94 0 160 -66 t66 -160t-66 -160.5t-160 -66.5t-160 66.5t-66 160.5t66 160t160 66zM815 516q19 0 32 -13t13 -32t-13 -32t-32 -13t-32 13t-13 32t13 32t32 13zM453 132q75 0 128 53t53 128t-53 128t-128 53t-128 -53t-53 -128t53 -128t128 -53z"/>
<glyph unicode="" d="M0 -65l2 44q12 6 43 9q50 11 59 18q10 7 27 38l281 737h69l6 -11l112 -266q49 -116 67 -163q13 -32 25 -61.5t18.5 -46t8.5 -20.5q24 -57 36 -90q8 -27 35 -83q15 -28 23 -34.5t34 -10.5q17 -1 56 -14l2.5 -17.5t1.5 -13.5v-5q0 -2 -2 -10q-36 0 -104 5q-55 4 -102 4h-44 q-20 0 -29 -1l-110 -5l-31 -1q0 18 2 42l71 15q32 8 37 14q13 9 3 31l-25 63l-50 125l-245 1q-6 -12 -21 -53l-36 -98q-13 -38 -12 -46q0 -14 9 -23q13 -10 56 -18q7 -1 47 -6v-33q0 -4 -2 -14l-66 2q-24 1 -123 9l-27 -5q-43 -8 -90 -8h-12zM395 543l-92 -247q29 0 44 -1 q17 0 44 -0.5t30 -0.5q45 -1 58 0l16 1q-39 111 -100 248z"/>
<glyph unicode="" d="M36 -39l40 7q43 6 74 18q10 20 11 30q6 33 6 114l-1 293q0 7 -0.5 18.5t-1 30t-0.5 33.5q-1 107 -3 157q-1 48 -7 65q-2 5 -7 5q-13 9 -41 10q-21 0 -68 8l-2 49l380 11h27q2 0 5 0.5t4 0.5h8q9 0 13 -1h23h45q51 0 113 -16q27 -6 57 -23q74 -35 100 -106q12 -36 12 -72 q0 -81 -75 -137q-8 -7 -32 -18q-7 -4 -57 -28q101 -23 156.5 -83.5t55.5 -141.5q0 -46 -15.5 -91t-43.5 -73q-39 -42 -83 -64q-94 -42 -238 -41l-117 3q-38 1 -178 -8q-40 -2 -55 -2q-98 -4 -106 -4zM351 742q0 -20 3 -45q4 -79 2 -164v-104q28 -4 65 -4q108 0 159 40.5 t51 130.5q0 66 -50 110q-50 45 -152 45q-31 0 -78 -9zM356 175l2 -160q0 -11 6 -26q44 -19 102 -18q61 1 110.5 24.5t72.5 65.5q23 48 23 107q0 65 -29.5 113.5t-78.5 67.5q-48 19 -148 18q-40 0 -60 -5v-187z"/>
<glyph unicode="" d="M142 -93l11 49q17 5 46 12q52 13 71 23q17 24 24 61l17 80l34 158l7 38q13 72 25 105q10 33 10 37l18 92l10 38l13 79l5 29v23q-29 15 -87 16q-5 0 -13 2h-11l12 62l192 -9h13.5t10.5 -0.5t5 -0.5h16q20 0 130 5q24 3 40 3q4 0 7 0.5t5.5 0.5t4.5 0.5t3 0.5h2h1 q-1 -2 -1.5 -6t-0.5 -6l-2 -11q-5 -13 -9 -31q-24 -8 -64 -18q-34 -7 -62 -18q-17 -45 -23 -100q-29 -122 -40 -180l-37 -183l-23 -93l-26 -139l-8 -26v-6v-2q0 -1 0.5 -3.5t0.5 -4.5q45 -10 73 -13h2q2 -1 11 -1l26 -4q0 -11 -2 -19l-1 -16l-3 -10q0 -2 -1.5 -6.5 t-1.5 -6.5q-7 0 -9 -1h-5q-4 0 -8 -0.5t-6 -1t-3 -0.5h-15q-5 0 -11 3q-13 0 -26 2l-62 7l-119 1q-41 0 -107 -7q-41 -4 -59 -4z"/>
<glyph unicode="" d="M0 545q16 42 39 144q3 9 6 27l5 15h28q4 -6 5 -9q13 -29 20 -35q10 -2 63 -2q26 0 33 1h29l10 1l55 1l245 -1l27 5q6 4 13 26q0 1 1 3q0 2 1 3q0 2 3 8l21 1h5l3 -1h5v-47q0 -35 1 -68v-77q0 -13 -2 -25q-16 -5 -18 -5q-1 -1 -3.5 -1.5t-3.5 -0.5l-8 -2q-15 28 -26 63 q-13 37 -18 45q-8 8 -13 10q-6 2 -30 2h-82q-7 0 -17 -2q-3 -21 -3 -35l1 -74v-163l1 -175v-72q0 -39 5 -57q13 -5 27 -8q5 0 10 -2l25 -6q19 -8 24 -9q2 -10 2 -16v-14q0 -1 -0.5 -4t-0.5 -5h-17q-32 0 -80 4t-119 4q-4 0 -28 -2q-2 0 -8 -1t-19.5 -2t-25.5 -2l-22 -1 q-4 -1 -12 -1v8l-1 5l-1 12v5q7 15 39 24q53 17 66 24q3 11 5 28q4 88 3 211l-2 209v47l-1 23q0 29 -2 35q0 10 -9 10q-10 2 -31 2h-62q-31 0 -46 -5t-29 -21q-12 -14 -42 -59q-11 -17 -17 -17q-19 9 -27 21zM750 614h-59q-13 0 -15.5 6.5t6.5 16.5l90 90q6 6 16 6 q8 0 15 -6l90 -90q9 -10 6.5 -16.5t-16.5 -6.5h-58v-512h58q14 0 16.5 -6.5t-6.5 -15.5l-90 -91q-7 -6 -16 -6q-7 0 -15 6l-90 91q-9 9 -6.5 15.5t15.5 6.5h59v512z"/>
<glyph unicode="" d="M0 634q19 41 46 137q3 17 12 42h33q5 -9 6 -9q18 -31 21 -34h22q8 -1 45 -1h170l11 1h428l31 4q7 6 15 27q1 3 6 13h40v-185q0 -13 -3 -24q-20 -6 -37 -9q-13 18 -31 61q-1 3 -2.5 6t-3 6.5t-2.5 6.5q-1 4 -3.5 9.5t-3.5 7.5l-5 8q-13 9 -40 10h-50h-135q-11 0 -21 -1 q-2 -12 -2 -34l2 -262l-1 -70q0 -37 7 -54q11 -5 31 -7q1 0 13 -2q21 -7 42 -10q2 -2 7 -2l6 -3q0 -3 0.5 -8t1.5 -7v-8v-6q-1 -2 -1 -8h-19q-56 0 -93 3q-35 4 -139 4q-1 0 -31 -2q-3 0 -7 -0.5t-11 -1t-12 -0.5q-30 -2 -32 -2l-25 -2q-4 -1 -14 -1q0 8 -2 12v17 q13 17 43 23q53 12 78 24q3 8 6 27q0 28 1 42v71q0 64 -1 165q0 39 -2 63v28q0 8 -11 11q-8 1 -35 1h-73h-36q-22 -2 -50 -2q-26 0 -46 -2q-23 -2 -24 -4q-24 -15 -69 -72q-12 -18 -20 -18q-20 10 -31 21zM0 45q0 11 7 18l110 109q11 12 19 8.5t8 -19.5v-71h617v71 q0 16 8 19.5t20 -8.5l109 -109q7 -7 7 -18t-7 -18l-109 -110q-12 -11 -20 -8t-8 20v70h-617v-70q0 -17 -8 -20.5t-19 8.5l-110 110q-7 7 -7 18z"/>
<glyph unicode="" d="M1 640v58q0 15 11 26t27 11h452q15 0 26 -11t11 -26v-58q0 -15 -11 -25.5t-26 -10.5h-452q-16 0 -27 10.5t-11 25.5zM1 434v56q0 16 11 27t27 11h754q15 0 26 -11t11 -27v-56q0 -16 -11 -27t-26 -11h-754q-17 0 -27.5 11t-10.5 27zM1 226v56q0 17 11 28t27 11h528 q15 0 26 -11.5t11 -27.5v-56q0 -16 -11 -27t-26 -11h-528q-16 0 -27 11t-11 27zM1 19v57q0 15 11 25.5t27 10.5h829q15 0 26.5 -11t11.5 -25v-57q0 -16 -11.5 -27t-26.5 -11h-829q-16 0 -27 11t-11 27z"/>
<glyph unicode="" d="M190 640v58q0 15 10.5 26t26.5 11h452q16 0 27 -11t11 -26v-58q0 -15 -11 -25.5t-27 -10.5h-452q-16 0 -26.5 10.5t-10.5 25.5zM39 434v56q0 16 10.5 27t26.5 11h754q16 0 27 -11t11 -27v-56q0 -16 -11 -27t-27 -11h-754q-16 0 -26.5 11t-10.5 27zM151 226v56 q0 16 11.5 27.5t27.5 11.5h527q16 0 27 -11.5t11 -27.5v-56q0 -16 -11 -27t-27 -11h-527q-16 0 -27.5 11t-11.5 27zM1 19v57q0 15 11 25.5t27 10.5h829q15 0 26.5 -11t11.5 -25v-57q0 -16 -11.5 -27t-26.5 -11h-829q-16 0 -27 11t-11 27z"/>
<glyph unicode="" d="M378 640v58q0 15 11 26t27 11h452q15 0 26.5 -11t11.5 -26v-58q0 -15 -11.5 -25.5t-26.5 -10.5h-452q-16 0 -27 10.5t-11 25.5zM76 434v56q0 16 11 27t27 11h754q15 0 26.5 -11t11.5 -27v-56q0 -16 -11.5 -27t-26.5 -11h-754q-16 0 -27 11t-11 27zM302 226v56 q0 16 11 27.5t27 11.5h528q15 0 26.5 -11.5t11.5 -27.5v-56q0 -16 -11.5 -27t-26.5 -11h-528q-16 0 -27 11t-11 27zM1 19v57q0 15 11 25.5t27 10.5h829q15 0 26.5 -11t11.5 -25v-57q0 -16 -11.5 -27t-26.5 -11h-829q-16 0 -27 11t-11 27z"/>
<glyph unicode="" d="M1 640v58q0 15 11 26t27 11h829q15 0 26 -11t11 -26v-58q0 -15 -11 -26t-26 -11h-829q-15 0 -26.5 11.5t-11.5 25.5zM1 434v56q0 16 11 27t27 11h829q15 0 26 -11t11 -27v-56q0 -16 -11 -27t-26 -11h-829q-16 0 -27 11t-11 27zM1 227v56q0 16 11 27t27 11h829 q15 0 26 -11t11 -27v-56q0 -16 -11 -27.5t-26 -11.5h-829q-16 0 -27 11.5t-11 27.5zM1 20v56q0 15 11 26t27 11h829q15 0 26 -11t11 -26v-56q0 -16 -11 -27.5t-26 -11.5h-829q-16 0 -27 11.5t-11 27.5z"/>
<glyph unicode="" d="M1 640v58q0 15 11 26t27 11h75q15 0 26 -11t11 -26v-58q0 -15 -11 -25.5t-26 -10.5h-75q-16 0 -27 10.5t-11 25.5zM227 640v58q0 15 11 26t27 11h603q15 0 26.5 -11t11.5 -26v-58q0 -15 -11.5 -25.5t-26.5 -10.5h-603q-16 0 -27 11t-11 25zM1 434v56q0 16 11 27t27 11h75 q15 0 26 -11t11 -27v-56q0 -16 -11 -27t-26 -11h-75q-17 0 -27.5 11t-10.5 27zM227 434v56q0 16 11 27t27 11h603q15 0 26.5 -11t11.5 -27v-56q0 -16 -11.5 -27t-26.5 -11h-603q-16 0 -27 11t-11 27zM1 226v56q0 17 11 28t27 11h75q15 0 26 -11.5t11 -27.5v-56 q0 -16 -11 -27t-26 -11h-75q-16 0 -27 11t-11 27zM227 226v56q0 16 11 27.5t27 11.5h603q15 0 26.5 -11.5t11.5 -27.5v-56q0 -16 -11.5 -27t-26.5 -11h-603q-16 0 -27 11t-11 27zM1 19v57q0 15 11 25.5t27 10.5h75q15 0 26 -11t11 -25v-57q0 -16 -11 -27t-26 -11h-75 q-16 0 -27 11t-11 27zM227 19v57q0 15 11 25.5t27 10.5h603q15 0 26.5 -11t11.5 -25v-57q0 -16 -11.5 -27t-26.5 -11h-603q-16 0 -27 11t-11 27z"/>
<glyph unicode="" d="M302 0v716q0 19 19 19h37q20 0 20 -19v-716q0 -19 -20 -19h-37q-19 0 -19 19zM453 640v58q0 15 11 26t27 11h264q16 0 27 -11t11 -26v-58q0 -15 -11 -25.5t-27 -10.5h-264q-16 0 -27 10.5t-11 25.5zM453 434v56q0 16 11 27t27 11h339q16 0 27 -11t11 -27v-56 q0 -16 -11 -27t-27 -11h-339q-17 0 -27.5 11t-10.5 27zM1 352v37q0 19 19 19h104v76q0 15 8 18t19 -8l106 -106q17 -17 0 -35l-106 -105q-11 -12 -19 -9t-8 19v75h-104q-19 0 -19 19zM453 226v56q0 16 11 27.5t27 11.5h302q15 0 26 -11.5t11 -27.5v-56q0 -16 -11 -27 t-26 -11h-302q-16 0 -27 11t-11 27zM453 19v57q0 15 11 25.5t27 10.5h377q15 0 26.5 -11t11.5 -25v-57q0 -16 -11.5 -27t-26.5 -11h-377q-16 0 -27 11t-11 27z"/>
<glyph unicode="" d="M1 640v58q0 15 11 26t26 11h264q15 0 26 -11t11 -26v-58q0 -15 -11 -25.5t-26 -10.5h-264q-15 0 -26 11t-11 25zM528 0v716q0 19 20 19h37q7 0 13 -5.5t6 -13.5v-716q0 -8 -6 -13.5t-13 -5.5h-37q-20 0 -20 19zM1 434v56q0 16 11 27t26 11h340q15 0 26 -11t11 -27v-56 q0 -16 -11 -27t-26 -11h-340q-15 0 -26 11t-11 27zM641 346q0 6 7 17l107 105q11 12 18.5 9t7.5 -19v-75h105q8 0 14 -5.5t6 -13.5v-37q0 -8 -5.5 -13.5t-14.5 -5.5h-105v-76q0 -15 -7.5 -18t-18.5 7l-107 107q-7 10 -7 18zM1 226v56q0 16 11 27.5t26 11.5h301 q17 0 28 -11.5t11 -27.5v-56q0 -16 -11.5 -27t-27.5 -11h-301q-15 0 -26 11t-11 27zM1 19v57q0 15 11 25.5t26 10.5h377q16 0 27 -10.5t11 -25.5v-57q0 -16 -11 -27t-27 -11h-377q-15 0 -26 11t-11 27z"/>
<glyph unicode="" d="M0 170v377q0 47 34 80t80 33h377q46 0 79.5 -33.5t33.5 -79.5v-118l238 232q11 11 27 11q2 0 7.5 -1.5t6.5 -1.5q23 -11 23 -34v-554q0 -25 -23 -34q-7 -3 -14 -3q-17 0 -27 11l-238 231v-116q0 -46 -33 -80t-80 -34h-377q-47 0 -80.5 34t-33.5 80z"/>
<glyph unicode="" d="M34 743h838q23 0 39.5 -17t16.5 -40v-656q0 -23 -16.5 -40t-39.5 -17h-838q-23 0 -39.5 17t-16.5 40v656q0 23 16.5 40t39.5 17zM883 141v545q0 11 -11 11h-838q-11 0 -11 -11v-545l278 278q16 16 32 0l188 -187l120 119q6 7 16 7q9 0 16 -7zM691 630q42 0 71.5 -30 t29.5 -72t-29.5 -72t-71.5 -30q-43 0 -72.5 30t-29.5 72t29.5 72t72.5 30zM691 471q23 0 39.5 17t16.5 40t-16.5 39.5t-39.5 16.5q-24 0 -40.5 -16.5t-16.5 -39.5t16.5 -40t40.5 -17zM883 77l-226 226l-120 -119q-16 -16 -32 0l-188 187l-294 -294v-47q0 -11 11 -11h838 q11 0 11 11v47z"/>
<glyph unicode="" d="M766 764l73 -72q15 -15 15 -36t-15 -36l-448 -448q-6 -4 -10 -5l-163 -52q-2 -1 -7 -1q-9 0 -16 7q-10 10 -5 22l51 164q1 5 6 9l448 448q14 14 35.5 14t35.5 -14zM768 613l39 39q3 3 0 8l-73 72q-3 4 -7 0l-39 -39zM736 581l-80 80l-368 -368l80 -79zM712 440 q9 0 16 -6.5t7 -15.5v-397q0 -36 -26.5 -62t-63.5 -26h-508q-37 0 -63.5 26t-26.5 62v550q0 37 26 62.5t64 25.5h365q9 0 15.5 -6.5t6.5 -15.5q0 -10 -6.5 -16.5t-15.5 -6.5h-365q-19 0 -32 -12.5t-13 -30.5v-550q0 -17 13 -30t32 -13h508q18 0 31 13t13 30v397 q0 9 6.5 15.5t16.5 6.5zM246 171l76 24l-52 53z"/>
<glyph unicode="" d="M447 833h12q138 0 235.5 -97.5t97.5 -236.5q0 -87 -40.5 -190.5t-98.5 -188.5t-105.5 -143.5t-79.5 -87.5q-6 -6 -15 -6t-15 6q-32 29 -79.5 87.5t-105.5 143.5t-98.5 188.5t-40.5 190.5q0 139 97.5 236.5t235.5 97.5zM453 -63q40 41 86 100.5t95 137t81 165t32 159.5 q0 122 -83.5 205.5t-204.5 83.5h-12q-121 0 -204.5 -83.5t-83.5 -205.5q0 -72 32 -159.5t81 -165t95 -137t86 -100.5zM453 630q56 0 95.5 -40t39.5 -96t-39.5 -96t-95.5 -40t-95.5 40t-39.5 96t39.5 96t95.5 40zM453 403q37 0 63.5 26.5t26.5 64.5t-26.5 64t-63.5 26 t-63.5 -26t-26.5 -64t26.5 -64.5t63.5 -26.5z"/>
<glyph unicode="" d="M36 532q35 84 97 146q134 132 320 132t320 -132q132 -132 132 -320q0 -92 -34.5 -174.5t-97.5 -145.5q-133 -133 -320 -133t-320 133q-63 63 -97.5 145.5t-34.5 174.5t35 174zM161 235q24 -58 69 -101q91 -93 223 -93v633q-132 0 -223 -93q-93 -93 -93 -223 q0 -66 24 -123z"/>
<glyph unicode="" d="M134 225q0 93 51 171q7 14 39 57q77 102 125 196q31 60 51 123q5 18 20 28t33 8q18 2 33 -7.5t20 -28.5q29 -103 116 -232q27 -42 60 -87q40 -53 56 -85q34 -68 34 -143q0 -133 -93 -226q-92 -94 -226 -94q-132 0 -226 94q-93 91 -93 226zM274 154q0 -33 23 -56.5 t57 -23.5q33 0 56 23t23 57q0 25 -12 43q-2 0 -2 3q-2 2 -8 11q-19 24 -31 49q-10 14 -13 31q-3 11 -13 9q-11 3 -14 -9q-8 -26 -28 -58q-7 -12 -15 -22l-11 -14q-13 -22 -12 -43z"/>
<glyph unicode="" d="M766 764l73 -72q15 -15 15 -36t-15 -36l-448 -448q-6 -4 -10 -5l-163 -52q-2 -1 -7 -1q-9 0 -16 7q-10 10 -5 22l51 164q1 5 6 9l448 448q14 14 35.5 14t35.5 -14zM768 613l39 39q3 3 0 8l-73 72q-3 4 -7 0l-39 -39zM736 581l-80 80l-368 -368l80 -79zM712 440 q9 0 16 -6.5t7 -15.5v-397q0 -36 -26.5 -62t-63.5 -26h-508q-37 0 -63.5 26t-26.5 62v550q0 37 26 62.5t64 25.5h365q9 0 15.5 -6.5t6.5 -15.5q0 -10 -6.5 -16.5t-15.5 -6.5h-365q-19 0 -32 -12.5t-13 -30.5v-550q0 -17 13 -30t32 -13h508q18 0 31 13t13 30v397 q0 9 6.5 15.5t16.5 6.5zM246 171l76 24l-52 53z"/>
<glyph unicode="" d="M831 732l-1 -188q0 -9 -6.5 -15.5t-15.5 -6.5q-10 0 -16 6q-7 7 -7 16v132l-289 -303q-16 -16 -32 0q-17 16 -1 32l292 305l-143 -1q-9 0 -16 7t-7 16t6.5 16t16.5 7h196q2 0 3 -1q4 0 5 -1h1q1 0 4 -3h1l2 -1v-1l3 -4l1 -1q0 -1 0.5 -1t0.5 -1v-2q2 -4 2 -6v-1zM740 468 q10 0 16.5 -6.5t6.5 -15.5v-397q0 -37 -26 -62.5t-64 -25.5h-508q-37 0 -63.5 25.5t-26.5 62.5v550q0 37 26.5 62.5t63.5 25.5h365q9 0 15.5 -6.5t6.5 -15.5q0 -10 -6.5 -16.5t-15.5 -6.5h-365q-19 0 -31.5 -12.5t-12.5 -30.5v-550q0 -18 12.5 -30.5t31.5 -12.5h508 q19 0 31.5 12.5t12.5 30.5v397q0 9 7 15.5t16 6.5z"/>
<glyph unicode="" d="M0 133v450q0 62 44 106t106 44h525q13 0 26 -3l-92 -91h-459q-23 0 -39.5 -16.5t-16.5 -39.5v-450q0 -23 16.5 -39.5t39.5 -16.5h525q23 0 40 16.5t17 39.5v159l94 94v-253q0 -61 -45 -105.5t-106 -44.5h-525q-62 0 -106 44.5t-44 105.5zM391 235l-192 193q-11 11 -11 27 t11 27l48 48q13 11 28 11t26 -11l166 -166l320 320q11 12 27 11.5t27 -11.5l49 -48q11 -12 11 -27.5t-11 -26.5l-395 -395q-13 -11 -27 -11q-15 0 -28 11z"/>
<glyph unicode="" d="M14 382l144 144q15 15 25.5 11t10.5 -26v-96h203v202h-97q-21 0 -25.5 10.5t10.5 25.5l144 143q11 11 24.5 11t23.5 -11l144 -143q16 -16 11.5 -26t-26.5 -10h-97v-202h203v96q0 22 10.5 26t25.5 -11l144 -144q10 -12 10 -24t-10 -24l-144 -144q-15 -15 -25.5 -11 t-10.5 26v99h-203v-205h97q22 0 26.5 -10.5t-11.5 -25.5l-144 -143q-10 -11 -23.5 -11t-24.5 11l-144 143q-15 16 -11 26t26 10h97v205h-203v-99q0 -22 -10.5 -26t-25.5 11l-144 144q-10 12 -10 24t10 24z"/>
<glyph unicode="" d="M137 765v-812q0 -18 13.5 -31.5t31.5 -13.5h90q19 0 32.5 13.5t13.5 31.5v812q0 19 -13 32.5t-33 13.5h-90q-18 0 -31.5 -13.5t-13.5 -32.5zM711 -81l-383 414q-10 11 -10 26.5t10 25.5l383 415q8 11 24 11q4 0 13 -3q21 -10 21 -34v-830q0 -24 -21 -33q-23 -9 -37 8z "/>
<glyph unicode="" d="M1 698v-679q0 -15 11 -26t26 -11h75q16 0 27 11t11 26v679q0 16 -10.5 27t-27.5 11h-75q-15 0 -26 -11t-11 -27zM480 -9l-320 346q-8 9 -8.5 22t8.5 21l320 348q8 8 20 8q6 0 11 -2q17 -9 17 -29v-693q0 -20 -17 -28q-19 -6 -31 7zM857 -9l-320 346q-8 9 -8.5 22t8.5 21 l320 348q8 8 21 8q5 0 10 -2q18 -9 18 -29v-693q0 -20 -18 -28q-19 -6 -31 7z"/>
<glyph unicode="" d="M396 -71l-380 409q-9 11 -9 26q0 16 9 25l380 411q7 10 24 10q6 0 13 -3q20 -8 20 -33v-820q0 -24 -21 -33t-36 8zM842 -71l-380 409q-9 11 -9 26q0 16 9 25l380 411q7 10 24 10q6 0 13 -3q20 -8 20 -33v-820q0 -24 -20.5 -33t-36.5 8z"/>
<glyph unicode="" d="M61 -54v812q0 23 20.5 35.5t39.5 -1.5l704 -405q20 -15 20 -35q0 -21 -20 -36l-704 -405q-9 -6 -20 -6t-20 6q-20 12 -20 35z"/>
<glyph unicode="" d="M453 811q187 0 320 -132.5t133 -320.5t-133 -320.5t-320 -132.5t-320 132.5t-133 320.5t133 320.5t320 132.5zM434 202v311q0 11 -8.5 18.5t-20.5 7.5h-68q-12 0 -20.5 -7.5t-8.5 -18.5v-311q0 -10 8.5 -17.5t20.5 -7.5h68q12 0 20.5 7.5t8.5 17.5zM606 202v311 q0 11 -8.5 18.5t-20.5 7.5h-68q-12 0 -20.5 -7.5t-8.5 -18.5v-311q0 -10 8.5 -17.5t20.5 -7.5h68q12 0 20.5 7.5t8.5 17.5z"/>
<glyph unicode="" d="M0 -54v823q0 17 12 29t29 12h823q17 0 29 -12t12 -29v-823q0 -17 -12 -29t-29 -12h-823q-17 0 -29 12t-12 29z"/>
<glyph unicode="" d="M2 -59v831q0 22 21 33q23 9 37 -8l384 -414q9 -11 9 -26q0 -17 -9 -27l-384 -414q-11 -11 -25 -11q-5 0 -12 3q-21 9 -21 33zM453 -59v831q0 22 21 33q23 9 37 -8l384 -414q9 -11 9 -26q0 -17 -9 -27l-384 -414q-11 -11 -25 -11q-4 0 -12 3q-21 9 -21 33z"/>
<glyph unicode="" d="M1 10v694q0 20 17 28q19 6 31 -7l321 -346q8 -10 8 -22q0 -14 -8 -22l-321 -347q-10 -8 -21 -8q-5 0 -10 2q-17 7 -17 28zM378 10v694q0 19 17 28q19 6 31 -7l321 -346q8 -10 8 -22q0 -14 -8 -22l-321 -347q-10 -8 -20 -8q-6 0 -11 2q-17 8 -17 28zM755 696v-679 q0 -15 11 -26t26 -11h75q16 0 27.5 11t11.5 26v679q0 16 -11.5 27t-27.5 11h-75q-15 0 -26 -11t-11 -27z"/>
<glyph unicode="" d="M137 -59v831q0 22 21 33q23 9 37 -8l384 -414q9 -11 9 -26q0 -17 -9 -27l-384 -414q-11 -11 -24 -11q-4 0 -13 3q-21 9 -21 33zM588 762v-812q0 -18 13.5 -31.5t31.5 -13.5h90q19 0 32.5 13.5t13.5 31.5v812q0 20 -13.5 33t-32.5 13h-90q-18 0 -31.5 -13.5t-13.5 -32.5z "/>
<glyph unicode="" d="M8 297q-11 26 8 45l408 407q12 12 29 12.5t28 -12.5l409 -407q20 -20 8 -45q-10 -25 -37 -25h-816q-28 0 -37 25zM4 -9v116q0 17 12 29t29 12h816q17 0 28.5 -12t11.5 -29v-116q0 -17 -11.5 -29t-28.5 -12h-816q-17 0 -29 12t-12 29z"/>
<glyph unicode="" d="M211 373l452 453q16 14 32 0q7 -7 7 -16.5t-7 -15.5l-436 -437l436 -437q7 -6 7 -15.5t-7 -16.5q-6 -6 -16 -6q-9 0 -16 6l-452 453q-16 16 0 32z"/>
<glyph unicode="" d="M243 826l452 -453q16 -16 0 -32l-452 -453q-8 -6 -16 -6q-10 0 -16 6q-7 7 -7 16.5t7 15.5l436 437l-436 437q-7 6 -7 15.5t7 16.5q16 14 32 0z"/>
<glyph unicode="" d="M36 532q35 84 97 146q134 132 320 132t320 -132q132 -132 132 -320q0 -92 -34.5 -174.5t-97.5 -145.5q-133 -133 -320 -133t-320 133q-63 63 -97.5 145.5t-34.5 174.5t35 174zM192 402v-90q0 -18 19 -18h177v-195q0 -19 19 -18h93q18 0 18 18v195h178q7 0 12.5 5t5.5 13 v90q0 7 -5.5 12.5t-12.5 5.5h-178v196q0 20 -18 18h-93q-19 0 -19 -18v-196h-177q-19 0 -19 -18z"/>
<glyph unicode="" d="M36 533q35 84 97 146q134 132 320 132t320 -132q132 -132 132 -321q0 -92 -34.5 -174.5t-97.5 -145.5q-132 -132 -320 -132t-320 132q-63 63 -97.5 145.5t-34.5 174.5q0 91 35 175zM192 402v-89q0 -19 19 -19h485q7 0 12.5 5.5t5.5 13.5v89q0 8 -5.5 13.5t-12.5 5.5h-485 q-19 0 -19 -19z"/>
<glyph unicode="" d="M34 187q-33 83 -33 171q0 187 132 319q64 65 147.5 99t172.5 34t172.5 -34t147.5 -99q64 -64 98 -146.5t34 -172.5q0 -190 -132 -320q-64 -65 -147.5 -99t-172.5 -34t-172 34q-84 34 -149 99t-98 149zM362 359l-138 -139q-5 -7 -5 -13t5 -13l66 -66q14 -14 26 0l138 138 l124 -125q6 -6 14 -6q7 0 13 6l64 64q14 12 0 26l-126 124l140 140q12 12 0 26l-67 65q-14 15 -26 0l-138 -138l-126 125q-6 6 -13 6t-13 -6l-62 -64q-15 -12 0 -26z"/>
<glyph unicode="" d="M453 811q-91 0 -175 -35.5t-145 -97.5q-62 -61 -97 -145t-35 -175t35 -175t97 -145q61 -62 145 -97.5t175 -35.5t175 35.5t146 97.5q61 61 96.5 145t35.5 175t-35.5 175t-96.5 145q-62 62 -146 97.5t-175 35.5zM743 477l-318 -318q-17 -17 -41 -17h-26q-24 0 -41 17 l-149 150q-7 7 -7 18q0 10 7 16l58 58q7 7 17 7q9 0 16 -7l97 -95q6 -7 17 -7q10 0 16 7l261 263q8 6 17 6t17 -6l59 -58q6 -8 6 -17q0 -10 -6 -17z"/>
<glyph unicode="" d="M453 811q187 0 320 -132.5t133 -320.5t-133 -320.5t-320 -132.5t-320 132.5t-133 320.5t133 320.5t320 132.5zM498 234v67q60 15 98 63.5t38 109.5q0 74 -53 126t-128 52t-128 -52t-53 -126v-14q0 -14 10 -24t24 -10h23q14 0 23.5 10t9.5 24v14q0 36 27 62t64 26t64 -26 t27 -62q0 -31 -20 -55.5t-51 -31.5q-29 -6 -47 -27t-18 -48v-78q0 -14 10 -24t24 -10h22q14 0 24 10t10 24zM498 98v22q0 14 -10 24t-24 10h-22q-14 0 -24 -10t-10 -24v-22q0 -14 10 -24t24 -10h22q14 0 24 10t10 24z"/>
<glyph unicode="" d="M36 532q35 84 97 146q134 132 320 132t320 -132q132 -132 132 -320q0 -92 -34.5 -174.5t-97.5 -145.5q-133 -133 -320 -133t-320 133q-63 63 -97.5 145.5t-34.5 174.5t35 174zM389 668v-94q0 -7 5.5 -12t12.5 -5h106q7 0 12 5t5 12v94q0 17 -17 17h-106q-7 0 -12.5 -5 t-5.5 -12zM325 487v-79q0 -16 17 -16h48v-232h-44q-7 0 -12 -4.5t-5 -11.5v-79q0 -7 5 -12t12 -5h228q7 0 11.5 5t4.5 12v79q0 16 -16 16h-44v327q0 7 -5 12.5t-12 5.5h-171q-7 0 -12 -5.5t-5 -12.5z"/>
<glyph unicode="" d="M0 313v90q0 9 7 15.5t16 6.5h97q21 100 93 172t172 93v97q0 23 23 23h90q9 0 15.5 -7t6.5 -16v-97q101 -21 172.5 -92.5t92.5 -172.5h97q9 0 16 -6.5t7 -15.5v-90q0 -23 -23 -23h-97q-21 -100 -93 -172t-172 -93v-97q0 -9 -6.5 -16t-15.5 -7h-90q-23 0 -23 23v97 q-99 21 -171.5 93.5t-93.5 171.5h-97q-23 0 -23 23zM318 290h-103q17 -63 62.5 -108.5t107.5 -61.5v103q0 8 6.5 14.5t16.5 6.5h90q10 0 16 -6t6 -15v-103q63 17 108.5 62.5t61.5 107.5h-101q-23 0 -23 23v90q0 10 6.5 16t16.5 6h101q-17 63 -62.5 108.5t-107.5 61.5v-101 q0 -10 -6 -16.5t-16 -6.5h-90q-23 0 -23 23v101q-63 -17 -108.5 -62.5t-61.5 -107.5h103q9 0 15 -6t6 -16v-90q0 -10 -6.5 -16.5t-14.5 -6.5z"/>
<glyph unicode="" d="M36 532q35 84 97 146q134 132 320 132t320 -132q132 -132 132 -320q0 -92 -34.5 -174.5t-97.5 -145.5q-133 -133 -320 -133t-320 133q-63 63 -97.5 145.5t-34.5 174.5t35 174zM161 235q24 -58 69 -101q91 -93 223 -93q131 0 224 93t93 224q0 130 -93 223q-91 93 -224 93 q-132 0 -223 -93q-93 -93 -93 -223q0 -66 24 -123zM326 167l-63 64q-7 7 -7 17q0 9 7 15l94 95l-94 94q-7 6 -7 16q0 9 7 16l63 64q17 17 33 0l94 -94l94 94q17 16 33 0l64 -64q15 -17 0 -32l-94 -94l94 -95q15 -15 0 -32l-64 -64q-9 -7 -16 -7q-8 0 -17 7l-94 94l-94 -94 q-7 -7 -16 -7q-7 0 -17 7z"/>
<glyph unicode="" d="M36 532q35 84 97 146q134 132 320 132t320 -132q132 -132 132 -320q0 -92 -34.5 -174.5t-97.5 -145.5q-133 -133 -320 -133t-320 133q-63 63 -97.5 145.5t-34.5 174.5t35 174zM161 235q24 -58 69 -101q91 -93 223 -93q131 0 224 93t93 224q0 130 -93 223q-91 93 -224 93 q-132 0 -223 -93q-93 -93 -93 -223q0 -66 24 -123zM336 172l-142 141q-5 7 -5 16q0 10 5 15l66 66q5 5 15 5q11 0 16 -5l101 -102q16 -16 32 0l191 192q6 6 16 6t16 -6l65 -65q5 -5 5.5 -15.5t-5.5 -15.5l-232 -232q-16 -16 -40 -16h-64q-24 0 -40 16z"/>
<glyph unicode="" d="M36 532q35 84 97 146q134 132 320 132t320 -132q132 -132 132 -320q0 -92 -34.5 -174.5t-97.5 -145.5q-133 -133 -320 -133t-320 133q-63 63 -97.5 145.5t-34.5 174.5t35 174zM137 358q0 -93 51 -171l436 436q-80 51 -171 51q-132 0 -223 -93q-93 -93 -93 -223zM720 528 l-437 -437q78 -50 170 -50q131 0 224 93t93 224q0 90 -50 170z"/>
<glyph unicode="" d="M79 380h805q10 0 16.5 -6.5t6.5 -16.5t-6.5 -16.5t-16.5 -6.5h-805l210 -210q16 -16 0 -32q-7 -7 -16 -7t-16 7l-249 249q-16 16 0 32l249 249q16 16 32 0t0 -32z"/>
<glyph unicode="" d="M649 622l249 -249q16 -16 0 -32l-249 -249q-7 -7 -16 -7t-16 7q-16 16 0 32l210 210h-805q-10 0 -16.5 6.5t-6.5 16.5t6.5 16.5t16.5 6.5h805l-210 210q-16 16 0 32t32 0z"/>
<glyph unicode="" d="M475 732v-805q0 -9 -7 -16t-16 -7q-10 0 -16.5 7t-6.5 16v805l-210 -210q-16 -16 -32 0q-7 6 -7 16q0 9 7 16l249 249q16 16 32 0l249 -249q16 -16 0 -32t-32 0z"/>
<glyph unicode="" d="M431 -16v805q0 9 7 16t16 7q10 0 16.5 -7t6.5 -16v-805l210 210q16 16 32 0q7 -6 7 -16q0 -9 -7 -16l-249 -249q-16 -16 -32 0l-249 249q-16 16 0 32t32 0z"/>
<glyph unicode="" d="M1 40q0 219 142 352q154 145 443 148v144q0 35 17.5 42.5t43.5 -17.5l241 -242q17 -16 17 -40t-17 -41l-241 -242q-25 -25 -43 -17.5t-18 42.5v162q-248 -3 -391 -100q-132 -89 -154 -241q-3 -16 -18 -16h-1q-17 0 -18 16q-3 25 -3 50z"/>
<glyph unicode="" d="M554 366l-94 93q-7 7 -7 19q0 11 7 19l162 161l-98 98q-23 22 -16 38t39 16h306q21 0 36.5 -15.5t15.5 -35.5v-307q0 -31 -15.5 -38t-38.5 15l-98 98l-161 -161q-7 -8 -19 -8t-19 8zM0 -44v307q0 31 16 38t38 -15l98 -98l161 162q8 8 19 8t19 -8l94 -94q8 -8 8 -19 q0 -9 -8 -19l-162 -161l98 -98q23 -23 16 -38.5t-39 -15.5h-306q-21 0 -36.5 15.5t-15.5 35.5z"/>
<glyph unicode="" d="M453 409v307q0 32 15.5 38t38.5 -16l98 -98l161 162q8 8 18 8t20 -8l94 -94q7 -7 7 -18q0 -12 -7 -20l-162 -160l98 -98q22 -22 15.5 -38t-38.5 -16h-306q-24 0 -36 15q-16 15 -16 36zM102 -87l-94 94q-7 7 -7 19q0 11 7 19l162 160l-98 98q-22 23 -15.5 38.5t38.5 15.5 h306q22 0 37 -15t15 -36v-307q0 -32 -15.5 -38t-38.5 16l-98 98l-161 -162q-8 -8 -18 -8t-20 8z"/>
<glyph unicode="" d="M476 381h430q9 0 15.5 -6.5t6.5 -16.5t-6.5 -16.5t-15.5 -6.5h-430v-430q0 -9 -6.5 -15.5t-16.5 -6.5t-16.5 6.5t-6.5 15.5v430h-430q-9 0 -15.5 6.5t-6.5 16.5t6.5 16.5t15.5 6.5h430v430q0 9 6.5 15.5t16.5 6.5t16.5 -6.5t6.5 -15.5v-430z"/>
<glyph unicode="" d="M0 335h906q9 0 15.5 6.5t6.5 16.5t-6.5 16.5t-15.5 6.5h-906q-9 0 -15.5 -6.5t-6.5 -16.5t6.5 -16.5t15.5 -6.5z"/>
<glyph unicode="" d="M258 358l-197 113q-21 12 -27 34t6 42l43 73q12 21 34 26.5t43 -5.5l195 -113v225q0 25 16.5 41t40.5 16h83q24 0 40.5 -16t16.5 -39v-227l195 113q21 12 43.5 6t33.5 -27l42 -73q12 -20 6.5 -42t-26.5 -34l-196 -113l196 -114q21 -12 26.5 -34t-5.5 -42l-43 -73 q-11 -21 -33.5 -27t-43.5 6l-195 113v-225q0 -25 -16 -41t-41 -16h-83q-24 0 -40.5 16t-16.5 39v227l-195 -113q-21 -12 -43 -6t-34 27l-43 73q-11 20 -5.5 42t26.5 34z"/>
<glyph unicode="" d="M36 532q35 84 97 146q134 132 320 132t320 -132q132 -132 132 -320q0 -92 -34.5 -174.5t-97.5 -145.5q-133 -133 -320 -133t-320 133q-63 63 -97.5 145.5t-34.5 174.5t35 174zM381 644l8 -418q3 -17 18 -17h92q7 0 12 5t5 12l9 418q0 5 -4 13q-6 4 -13 5h-110 q-7 0 -12 -5.5t-5 -12.5zM386 155v-99q0 -7 4.5 -12t11.5 -5h102q7 0 12.5 5t5.5 12v99q0 7 -5.5 12t-12.5 5h-102q-7 0 -11.5 -5t-4.5 -12z"/>
<glyph unicode="" d="M0 264v188q0 8 6 13.5t13 5.5h259q-55 0 -93.5 38.5t-38.5 93.5t38.5 93.5t93.5 38.5q64 0 98 -45l77 -98l76 98q35 45 98 45q55 0 93.5 -38.5t38.5 -93.5t-38.5 -93.5t-93.5 -38.5h259q8 0 13.5 -5.5t5.5 -13.5v-188q0 -8 -5.5 -13.5t-13.5 -5.5h-56v-208 q0 -23 -17 -39.5t-40 -16.5h-641q-23 0 -39.5 16.5t-16.5 39.5v208h-57q-8 0 -13.5 5.5t-5.5 13.5zM238 563q16 -16 40 -16h114l-72 94q-19 19 -42 19t-39.5 -17t-16.5 -40q0 -24 16 -40zM513 547h114q24 0 40 16t16 40q0 23 -16.5 40t-39.5 17t-41 -19zM358 471v-384 q0 -16 11 -27t27 -11h113q16 0 27 11t11 27v384h-189z"/>
<glyph unicode="" d="M5 63q11 29 36 52q20 19 41 34q14 12 19 26v6q0 1 -1 2q-3 6 -4 9q-7 14 -10 30q-21 141 62 250q76 98 200 143q29 8 36 9l18 3q10 2 20 2q18 2 19 2q18 2 42 2h22q11 1 22 1q87 0 136 8.5t74 35.5l19 19q27 33 64 33q23 0 34 -20q62 -125 30 -281q-42 -226 -269 -345 q-108 -57 -218 -57q-72 0 -143 25q-12 4 -42 21q0 1 -3 2t-4 2q-2 1 -16 9q-4 2 -14 6q-5 2 -13 2q-11 -3 -35 -43q-14 -24 -22 -35l-11 -16q-12 -14 -30 -14h-2q-42 3 -52 41q-13 17 -5 36zM199 264q-11 -12 -10 -27t14 -26q8 -9 24.5 -8t27.5 12q85 97 173.5 136.5 t211.5 34.5q15 -1 26.5 9.5t12.5 26.5t-9 26.5t-27 12.5q-136 5 -245 -42.5t-199 -154.5z"/>
<glyph unicode="" d="M453 -95q140 0 239.5 95t99.5 229q0 49 -9 92t-29.5 83t-36 64t-44.5 64q-36 50 -53.5 77t-35.5 77t-18 102q0 13 -11 19q-12 6 -23 0q-48 -29 -79 -77t-40.5 -96.5t-13.5 -99t2 -83.5q-21 22 -35 48.5t-19.5 48t-7 42.5t-1 30.5t1.5 13.5q2 16 -12 23q-15 7 -26 -4 q-188 -177 -188 -424q0 -134 99.5 -229t239.5 -95zM295 581q11 -130 123 -202q14 -9 25 1q12 7 10 23q-1 2 -4.5 25.5t-4 64.5t4.5 84.5t24 90t51 76.5q6 -47 25.5 -94t36.5 -73t50 -72q38 -51 56.5 -81t36.5 -83.5t18 -111.5q0 -115 -86 -197t-208 -82t-208 82t-86 197 q0 199 136 352z"/>
<glyph unicode="" d="M971 368q5 -9 0 -20q-83 -168 -218.5 -260t-299.5 -92t-299.5 92t-218.5 260q-5 11 0 20q83 168 218.5 260t299.5 92t299.5 -92t218.5 -260zM453 41q148 0 271.5 83t201.5 234q-78 151 -201.5 234t-271.5 83t-271.5 -83t-201.5 -234q78 -151 201.5 -234t271.5 -83z M453 586q94 0 160 -66t66 -160t-66 -160t-160 -66t-160 66t-66 160t66 160t160 66zM453 179q75 0 128 53t53 128t-53 128t-128 53t-128 -53t-53 -128t53 -128t128 -53zM453 268q38 0 64.5 26.5t26.5 63.5q0 38 -27 64.5t-64 26.5t-64 -26.5t-27 -64.5q0 -37 26.5 -63.5 t64.5 -26.5z"/>
<glyph unicode="" d="M12 317q-12 19 -12 40t12 41q76 123 192 191.5t247 68.5q40 0 101 -12l44 77q3 6 11 9q5 2 15 -1l65 -37q16 -11 7 -26l-378 -676q-3 -6 -11 -9q-1 0 -2.5 -0.5t-2.5 -0.5t-9 2l-66 37q-16 10 -7 26l32 56q-147 70 -238 214zM453 57l43 78q100 12 185 70t145 153 q-57 86 -129 138l37 67q94 -67 156 -165q23 -41 0 -81q-78 -124 -191.5 -191t-245.5 -69zM300 401q0 -11 8.5 -19t19.5 -8q12 0 20 8t8 19q0 38 26 64t64 26q12 0 20 8.5t8 20.5t-8 20t-20 8q-60 0 -103 -43t-43 -104zM75 358q81 -131 211 -190l28 51q-93 70 -93 182 q0 71 46 137q-120 -63 -192 -180zM528 192l140 250q3 -23 3 -41q0 -70 -39.5 -127t-103.5 -82z"/>
<glyph unicode="" d="M914 -43q0 7 -5 14l-436 796q-6 11 -20 11t-20 -11l-437 -800q-6 -11 0 -22t20 -11h875zM453 709l400 -730h-799zM450 183q9 0 15.5 6.5t6.5 15.5v227q0 9 -6.5 15.5t-15.5 6.5q-10 0 -16.5 -6.5t-6.5 -15.5v-227q0 -9 6.5 -15.5t16.5 -6.5zM418 103q0 -13 9 -22.5 t23 -9.5t23 9.5t9 22.5t-9 22.5t-23 9.5t-23 -9.5t-9 -22.5z"/>
<glyph unicode="" d="M231 233l184 184l-403 243l69 69l513 -131l191 191q21 21 50 21q30 0 50 -21t20 -50t-20 -49l-191 -191l130 -515l-68 -67l-242 398l-182 -180l13 -162l-67 -68l-99 176l-178 98l71 71z"/>
<glyph unicode="" d="M702 743h102q23 0 39.5 -17t16.5 -40v-724q0 -23 -16.5 -40t-39.5 -17h-702q-23 0 -39.5 17t-16.5 40v724q0 23 16.5 40t39.5 17h102q0 28 20 48t48 20t48 -20t20 -48h226q0 28 20 48t48 20t48 -20t20 -48zM249 743v-69q0 -9 6.5 -15.5t16.5 -6.5t16.5 6.5t6.5 15.5v69 q0 9 -6.5 15.5t-16.5 6.5t-16.5 -6.5t-6.5 -15.5zM611 743v-69q0 -9 6.5 -15.5t16.5 -6.5t16.5 6.5t6.5 15.5v69q0 9 -6.5 15.5t-16.5 6.5t-16.5 -6.5t-6.5 -15.5zM815 539v147q0 11 -11 11h-102v-23q0 -28 -20 -47.5t-48 -19.5t-48 19.5t-20 47.5v23h-226v-23 q0 -28 -20 -47.5t-48 -19.5t-48 19.5t-20 47.5v23h-102q-11 0 -11 -11v-147h724zM815 494h-724v-532q0 -11 11 -11h702q11 0 11 11v532zM340 358v-90q0 -10 -6.5 -16.5t-16.5 -6.5h-90q-10 0 -16.5 6.5t-6.5 16.5v90q0 10 6.5 16.5t16.5 6.5h90q10 0 16.5 -6.5t6.5 -16.5z M521 358v-90q0 -10 -6.5 -16.5t-16.5 -6.5h-90q-10 0 -16.5 6.5t-6.5 16.5v90q0 10 6.5 16.5t16.5 6.5h90q10 0 16.5 -6.5t6.5 -16.5zM702 358v-90q0 -10 -6.5 -16.5t-16.5 -6.5h-90q-10 0 -16.5 6.5t-6.5 16.5v90q0 10 6.5 16.5t16.5 6.5h90q10 0 16.5 -6.5t6.5 -16.5z M249 290h46v45h-46v-45zM430 290h46v45h-46v-45zM611 290h46v45h-46v-45zM340 177v-90q0 -10 -6.5 -16.5t-16.5 -6.5h-90q-10 0 -16.5 6.5t-6.5 16.5v90q0 10 6.5 16.5t16.5 6.5h90q10 0 16.5 -6.5t6.5 -16.5zM521 177v-90q0 -10 -6.5 -16.5t-16.5 -6.5h-90q-10 0 -16.5 6.5 t-6.5 16.5v90q0 10 6.5 16.5t16.5 6.5h90q10 0 16.5 -6.5t6.5 -16.5zM702 177v-90q0 -10 -6.5 -16.5t-16.5 -6.5h-90q-10 0 -16.5 6.5t-6.5 16.5v90q0 10 6.5 16.5t16.5 6.5h90q10 0 16.5 -6.5t6.5 -16.5zM249 109h46v45h-46v-45zM430 109h46v45h-46v-45zM611 109h46v45h-46 v-45z"/>
<glyph unicode="" d="M0 107v75q0 7 5.5 12.5t13.5 5.5h107q43 0 81.5 41.5t100.5 141.5q79 126 138.5 181t139.5 55h100v90q0 20 12 24t29 -10l163 -136q11 -9 11 -22.5t-11 -22.5l-163 -135q-17 -14 -29 -10t-12 24v85h-100q-42 0 -81.5 -42.5t-101.5 -140.5q-8 -14 -20.5 -33.5t-16.5 -25.5 q-49 -71 -80 -102q-73 -74 -160 -74h-107q-8 0 -13.5 5.5t-5.5 13.5zM0 525v75q0 19 19 19h107q60 0 108.5 -31.5t98.5 -97.5q-55 -83 -57 -87q-3 -6 -4 -7t-2.5 -3.5t-2.5 -3.5q-42 61 -74.5 89.5t-66.5 28.5h-107q-8 0 -13.5 5.5t-5.5 12.5zM380 218q8 10 28 42 q12 18 27 43l5 8q4 7 5 9q41 -61 73.5 -89t67.5 -28h100v93q0 20 12 24t29 -10l163 -135q11 -9 11 -23t-11 -22l-163 -137q-17 -14 -29 -10t-12 24v82h-100q-109 0 -206 129z"/>
<glyph unicode="" d="M454 765q123 0 227 -54.5t164.5 -148t60.5 -204.5t-60.5 -204.5t-164.5 -148t-227 -54.5q-133 0 -240 62l-183 -61q-2 -1 -7 -1q-10 0 -16 6q-9 9 -6 23l58 176q-59 96 -59 202q0 111 60.5 204.5t165 148t227.5 54.5zM454 -4q168 0 287.5 106t119.5 256t-119.5 256 t-287.5 106q-169 0 -288.5 -106t-119.5 -256q0 -101 58 -186q6 -9 3 -20l-48 -143l150 50q3 1 7 1q6 0 12 -3q101 -61 226 -61zM273 426q28 0 48 -20t20 -48t-20 -48t-48 -20t-48 20t-20 48t20 48t48 20zM454 426q28 0 48 -20t20 -48t-20 -48t-48 -20t-48 20t-20 48t20 48 t48 20zM635 426q28 0 48 -20t20 -48t-20 -48t-48 -20t-48 20t-20 48t20 48t48 20zM273 335q9 0 15.5 7t6.5 16t-6.5 16t-15.5 7q-10 0 -16.5 -7t-6.5 -16t6.5 -16t16.5 -7zM454 335q9 0 15.5 7t6.5 16t-6.5 16t-15.5 7q-10 0 -16.5 -7t-6.5 -16t6.5 -16t16.5 -7zM635 335 q9 0 15.5 7t6.5 16t-6.5 16t-15.5 7q-10 0 -16.5 -7t-6.5 -16t6.5 -16t16.5 -7z"/>
<glyph unicode="" d="M1 562v226q0 9 6.5 16t15.5 7h226q9 0 16.5 -7t7.5 -16v-226q0 -9 -7.5 -15.5t-16.5 -6.5h-226q-9 0 -15.5 6.5t-6.5 15.5zM635 562v226q0 9 6.5 16t15.5 7h226q9 0 16 -7t7 -16v-226q0 -9 -7 -15.5t-16 -6.5h-226q-22 0 -22 22zM1 282v166q0 10 6.5 16.5t15.5 6.5h226 q9 0 16.5 -6.5t7.5 -16.5v-166q0 -38 53.5 -71t126.5 -33q75 0 128.5 33t53.5 71v166q0 23 22 23h226q9 0 16 -6.5t7 -16.5v-166q0 -155 -133 -266q-134 -111 -320 -111q-185 0 -320 111q-132 110 -132 266z"/>
<glyph unicode="" d="M-15 148l453 452q16 16 32 0l453 -452q6 -7 6 -16q0 -10 -6 -16q-7 -7 -16.5 -7t-15.5 7l-437 436l-437 -436q-6 -7 -15.5 -7t-16.5 7q-14 16 0 32z"/>
<glyph unicode="" d="M921 568l-453 -452q-16 -16 -32 0l-453 452q-6 8 -6 16q0 10 6 16q7 7 16.5 7t15.5 -7l437 -436l437 436q6 7 15.5 7t16.5 -7q14 -16 0 -32z"/>
<glyph unicode="" d="M159 469h-115q-26 0 -31.5 14t13.5 34l177 196q13 13 29 13q17 0 30 -13l177 -196q19 -20 13.5 -34t-31.5 -14h-115v-314h80q10 -15 13 -17l116 -130h-320q-15 0 -25.5 11t-10.5 26v424zM391 707h320q15 0 25.5 -10.5t10.5 -26.5v-422h115q26 0 31.5 -14.5t-13.5 -34.5 l-177 -195q-12 -14 -29 -14q-18 0 -30 14l-177 195q-19 20 -13.5 34.5t31.5 14.5h115v312h-80q-2 3 -4 6.5t-3.5 5.5l-3 4t-1.5 3z"/>
<glyph unicode="" d="M0 677v38q0 19 19 19h113q14 0 36 -6q16 -10 24 -42l13 -61h659q17 0 28.5 -13t8.5 -29l-53 -283q-7 -29 -37 -29h-531l17 -82q5 -18 23 -18h419q7 0 13 -5.5t6 -13.5v-39q0 -8 -5.5 -13t-13.5 -5h-449q-21 0 -36 7q-5 2 -13 16t-11 26l-105 497q-3 17 -23 17h-83 q-19 0 -19 19zM301 79q16 16 39 16q24 0 41 -16.5t17 -39.5t-17 -40t-41 -17q-22 0 -38.5 17t-16.5 40t16 40zM603 39q0 23 16.5 39.5t39.5 16.5t39.5 -16.5t16.5 -39.5t-16.5 -40t-39.5 -17t-39.5 17t-16.5 40z"/>
<glyph unicode="" d="M1 37v642q0 23 16.5 39.5t39.5 16.5h340q23 0 39.5 -16.5t16.5 -39.5t16.5 -39.5t39.5 -16.5h341q23 0 39.5 -17t16.5 -41v-528q0 -23 -16.5 -39.5t-39.5 -16.5h-793q-23 0 -39.5 16.5t-16.5 39.5z"/>
<glyph unicode="" d="M1 167v512q0 23 16.5 39.5t39.5 16.5h340q23 0 39.5 -16.5t16.5 -39.5t16.5 -39.5t39.5 -16.5h218q23 0 39.5 -17t16.5 -41v-108h-603q-35 0 -66.5 -22.5t-44.5 -57.5zM22 -19l120 373q3 11 15 19t24 8h725l-128 -372q-3 -11 -15 -19.5t-23 -8.5h-718z"/>
<glyph unicode="" d="M423 -82l-182 181q-19 19 -13.5 32t32.5 13h115v427h-115q-27 0 -32.5 12.5t14.5 32.5l181 181q13 13 30 13t30 -13l182 -181q19 -20 13.5 -32.5t-33.5 -12.5h-114v-427h114q28 0 33.5 -13t-14.5 -32l-181 -181q-13 -13 -30 -13t-30 13z"/>
<glyph unicode="" d="M13 388l180 181q19 19 32 13.5t13 -31.5v-116h425v115q0 26 12.5 32t31.5 -13l181 -181q13 -14 12.5 -31t-12.5 -29l-181 -181q-19 -19 -31.5 -13.5t-12.5 32.5v115h-425v-115q0 -26 -13 -31.5t-32 13.5l-180 180q-13 15 -13 30t13 30z"/>
<glyph unicode="" d="M1 37v642q0 23 17 39.5t40 16.5h792q23 0 39.5 -16.5t16.5 -39.5v-642q0 -23 -16.5 -39.5t-39.5 -16.5h-792q-23 0 -40 16.5t-17 39.5zM76 56h754v604h-754v-604zM655 111v452h100v-452h-100zM319 111v381h99v-381h-99zM488 111v290h100v-290h-100zM151 111v178h100v-178 h-100z"/>
<glyph unicode="" d="M906 639q-52 -23 -107 -29q59 34 82 103q-54 -32 -118 -46q-56 59 -136 59q-77 0 -131.5 -54.5t-54.5 -131.5q0 -23 5 -42q-112 5 -211.5 56.5t-170.5 137.5q-26 -43 -26 -94q0 -47 22 -87.5t61 -66.5q-45 2 -85 23v-2q0 -66 42.5 -117.5t106.5 -64.5q-28 -7 -49 -7 q-14 0 -34 4q18 -57 65.5 -92.5t107.5 -36.5q-101 -80 -231 -80q-26 0 -43 3q129 -84 284 -84q165 0 289 83q118 79 179 200q61 122 61 246q0 6 -0.5 14t-0.5 10q55 40 93 96z"/>
<glyph unicode="" d="M224 403v118q0 9 6.5 16t15.5 7h72v59q0 206 212 208q71 0 134 -18q19 -6 17 -25l-16 -115q-2 -8 -9 -15q-9 -5 -18 -4q-37 10 -80 10q-30 0 -38 -9t-8 -40v-51h129q9 0 16 -7.5t7 -17.5l-10 -118q0 -9 -6.5 -14.5t-15.5 -5.5h-120v-453q0 -9 -6.5 -16t-15.5 -7h-149 q-9 0 -16 7t-7 16v453h-72q-9 0 -15.5 6.5t-6.5 15.5z"/>
<glyph unicode="" d="M1 37v642q0 23 16.5 39.5t39.5 16.5h793q23 0 39.5 -16.5t16.5 -39.5v-642q0 -23 -16.5 -39.5t-39.5 -16.5h-793q-23 0 -39.5 16.5t-16.5 39.5zM131 639h155v46h-155v-46zM76 543h754v114h-470l-6 -46h-278v-68zM274 329q0 -74 52.5 -126.5t126.5 -52.5t126.5 52 t52.5 127t-52.5 127t-126.5 52t-126.5 -52t-52.5 -127zM330 329q0 51 35.5 86.5t87.5 35.5t87.5 -35t35.5 -87t-35.5 -87.5t-87.5 -35.5q-53 0 -87 36q-36 34 -36 87zM365 329q0 -7 6.5 -13.5t13.5 -6.5q9 0 15.5 6t6.5 14q0 20 13 33t33 13v1q9 0 15 6t6 14q0 9 -6 15 t-15 6q-36 0 -62 -26t-26 -62zM76 59h754v56h-754v-56z"/>
<glyph unicode="" d="M59 277q-21 42 -25 86.5t6.5 84.5t25 71.5t34.5 59.5q45 62 115 104t157 31q46 -5 83 -30.5t58 -63.5q43 -76 25 -170q-8 -46 -30 -93l187 -134l46 63l-48 33q-15 11 -4 27l23 32q10 16 27 4l156 -112q16 -11 5 -27l-23 -31q-4 -7 -12 -8.5t-15 3.5l-46 34l-46 -63 l113 -80q19 -14 23 -37.5t-9 -43.5q-15 -20 -38 -23.5t-43 10.5l-364 260q-71 -73 -161.5 -90.5t-159.5 31.5q-41 29 -60 72zM140 391q-8 -38 14 -73.5t61 -44.5q65 -13 106 45q31 48 2 99q62 -10 97 39q24 32 17.5 73t-40.5 65q-33 24 -73.5 17.5t-65.5 -40.5 q-34 -52 -6 -104q-26 4 -53 -6q-24 -10 -39.5 -29.5t-19.5 -40.5z"/>
<glyph unicode="" d="M563 594q0 3 6 6q9 4 30 7q2 1 5 1.5t5 0.5q5 13 15 30v2q-1 1 -2.5 3.5t-1.5 3.5l-5 13q-8 15 -8 19t10 11q20 15 47 31l13 7q3 0 7 -4q9 -9 19 -21l6 -8q17 4 27 3h7q2 4 14 20l8 11q4 5 6 5q1 0 14 -5q34 -15 52 -26q10 -6 10 -9q0 -5 -1 -7q-4 -6 -4 -13 q-5 -18 -7 -21q10 -13 18 -28q33 -3 35 -4q10 -1 13.5 -8t2.5 -25q0 -28 2 -50q0 -10 -35 -14q-3 0 -11 -2q-4 -12 -14 -30l3 -7q2 -3 7 -13l6 -13l2 -6q0 -4 -10 -11q-21 -16 -49 -33l-12 -7q-1 0 -6 5q-15 13 -20 21l-6 7q-19 -3 -28 -2h-6q-2 -2 -6 -8q-11 -17 -17 -24 q-4 -4 -6 -4q-1 0 -14 5q-29 12 -50 26q-12 6 -12 9l2 7q0 2 1.5 6t1.5 7q0 1 2 6t3 7l3 8q-12 11 -18 28q-18 0 -36 2q-10 1 -13.5 8.5t-2.5 25.5q1 16 -2 51zM1 375v85q0 5 10 8q15 5 51 8q3 0 7.5 0.5t7 1t3.5 0.5q7 28 17 41l-21 30l-22 28l-2 4q0 4 10 14q21 25 46 46 q12 10 13 10t10 -6q28 -21 40 -31l11 -10q19 12 43 18q0 13 4 45q3 17 6 24q3 11 7 11h84q3 0 8 -11q5 -17 8 -52q1 -10 3 -17q20 -6 40 -17l30 22q17 12 28 22l4 2q1 0 13 -10q28 -25 46 -46q10 -10 10 -14q0 -3 -6 -10q-1 -1 -4 -5t-10 -13.5t-15 -19.5q-2 -3 -10 -13 q9 -13 19 -43q4 0 7.5 -0.5t6 -1t3.5 -0.5q16 -2 51 -10q10 -3 10 -6v-84q0 -5 -10 -8q-30 -8 -51 -9q-9 0 -17 -2q-5 -15 -18 -41q14 -20 21 -29q7 -10 23 -28l1 -4q0 -2 -9 -14q-22 -25 -47 -46q-10 -10 -14 -10l-9 6q-14 10 -40 30l-12 10q-30 -15 -41 -18q0 -14 -6 -44 q-1 -11 -5 -24q-5 -11 -8 -11h-84q-4 0 -7 11q-5 15 -9 51q-1 8 -1 17q-23 6 -42 18q-39 -30 -57 -45l-5 -1q-2 0 -12 10q-24 19 -45 46q-10 10 -10 14l6 10l14 18q21 28 23 32q-10 19 -18 44q-3 0 -7.5 0.5t-7 1t-3.5 0.5q-33 4 -50 9q-10 3 -10 6zM683 567q0 -22 15 -37 t36 -15q23 0 38 14.5t15 36.5t-15 37t-37 15t-37 -15t-15 -36zM199 417q0 -35 25 -60t61 -25q35 0 60 25t25 60q0 36 -25 61q-27 25 -60 25q-36 0 -61 -25t-25 -61zM526 173q0 2 7 7q17 8 30 12l7 3q1 0 2 1h2q1 14 11 35q-7 10 -14 22q-12 17 -12 21q0 2 9 11q15 15 43 39 l13 11l4 2q6 0 20 -13l12 -10q2 -3 8 -7q13 4 35 9q10 19 13 24l1 2l2 4q9 13 11 13t16 -3q35 -9 59 -20q13 -6 13 -11q0 -10 -3 -22l-4 -22q16 -14 24 -27q26 2 45 2q4 0 9 -13q8 -21 14 -59q3 -16 3 -19q0 -5 -21 -12l-15 -6l-11 -4q-6 -22 -11 -33l6 -9q13 -20 16 -26 t3 -8q0 -3 -8 -11q-19 -19 -43 -39q-13 -11 -13 -12l-4 -2q-6 0 -20 13l-12 11l-8 6q-18 -5 -37 -9q-5 -13 -13.5 -28t-11.5 -15q-5 0 -17 4q-37 9 -58 19q-12 6 -12 11q0 4 2 22l4 22q-14 11 -24 27q-26 -2 -42 -2h-7q-4 0 -4 5l-2 7q-1 2 -1 5.5t-1 4.5l-6 28 q-1 6 -2.5 12t-2.5 9t-1 5zM677 130q15 -17 39 -17t40.5 16.5t16.5 41.5q0 23 -16.5 39t-40.5 16q-23 0 -39.5 -16.5t-16.5 -38.5t17 -41z"/>
<glyph unicode="" d="M864 55l40 -122q5 -13 -5 -23q-6 -6 -16 -6q-5 0 -7 1l-127 42q-80 -43 -172 -43q-116 0 -207 67.5t-114 169.5q-38 12 -74 32l-152 -50q-13 -5 -23 5t-5 23l48 146q-50 79 -50 170q0 143 112.5 244t271.5 101q158 0 270.5 -101t112.5 -244q0 -17 -1 -25 q66 -42 103 -105.5t37 -136.5q0 -77 -42 -145zM196 217q83 -50 188 -50q128 0 224 75.5t111 187.5q0 1 0.5 2.5t0.5 2.5q2 22 2 32q0 124 -99.5 212t-238.5 88q-140 0 -239 -88t-99 -212q0 -84 47 -154q6 -9 3 -20l-37 -113l118 39q6 2 8 2q5 0 11 -4zM204 541q28 0 48 -20 t20 -48q0 -29 -20 -48.5t-48 -19.5t-48 20t-20 48t20 48t48 20zM453 473q0 -29 -19.5 -48.5t-48.5 -19.5q-28 0 -48 20t-20 48t20 48t48 20t48 -20t20 -48zM566 405q-28 0 -48 20t-20 48t20 48t48 20t48 -20t20 -48q0 -29 -20 -48.5t-48 -19.5zM204 450q10 0 16.5 6.5 t6.5 16.5q0 9 -6.5 16t-16.5 7q-9 0 -16 -7t-7 -16q0 -10 7 -16.5t16 -6.5zM362 473q0 -10 7 -16.5t16 -6.5q10 0 16.5 6.5t6.5 16.5q0 9 -6.5 16t-16.5 7q-9 0 -16 -7t-7 -16zM566 496q-9 0 -15.5 -7t-6.5 -16q0 -10 6.5 -16.5t15.5 -6.5q10 0 16.5 6.5t6.5 16.5 q0 9 -6.5 16t-16.5 7zM847 -38l-29 89q-3 11 3 20q39 59 39 129q0 118 -102 192q-29 -117 -133.5 -193.5t-240.5 -76.5q-43 0 -78 7q26 -79 102 -129.5t169 -50.5q88 0 157 42q8 6 19 2z"/>
<glyph unicode="" d="M627 494h143q46 0 79.5 -33t33.5 -80v-362q0 -47 -33 -80.5t-80 -33.5h-264q-126 0 -236 60q-11 -37 -49 -37h-147q-21 0 -36 15t-15 36v441q0 21 15 36t36 15h147q29 0 45 -26q42 27 68 38q27 12 44 42.5t24 78t8.5 76t2.5 71.5q1 25 18.5 42.5t42.5 17.5h37 q43 0 71.5 -35.5t28.5 -88.5v-178q0 -6 4.5 -10.5t11.5 -4.5zM838 19v362q0 28 -20 48t-48 20h-143q-25 0 -43 17.5t-18 42.5v178q0 36 -16.5 57t-38.5 21h-37q-15 0 -15 -15q-1 -35 -1.5 -53t-4 -57t-10.5 -63.5t-18 -54.5t-29.5 -49.5t-43.5 -30.5q-26 -12 -80 -47v-81 v-26q0 -57 0.5 -158t0.5 -114q107 -65 233 -65h264q28 0 48 20t20 48zM226 -22v443q0 5 -5 5h-148q-5 0 -5 -5v-443q0 -5 5 -5h148q5 0 5 5z"/>
<glyph unicode="" d="M506 811h264q47 0 80 -33.5t33 -80.5v-362q0 -47 -33.5 -80t-79.5 -33h-143q-7 0 -11.5 -4.5t-4.5 -10.5v-178q0 -53 -28.5 -88.5t-71.5 -35.5h-37q-25 0 -42.5 17.5t-18.5 42.5q-1 43 -2.5 71.5t-8.5 76t-24 78t-44 42.5q-15 6 -68 38q-16 -26 -45 -26h-147 q-21 0 -36 15t-15 36v441q0 21 15 36t36 15h147q38 0 49 -37q110 60 236 60zM838 335v362q0 28 -20 48t-48 20h-264q-126 0 -233 -65q0 -13 -0.5 -115.5t-0.5 -159.5v-21v-83q54 -35 80 -47q25 -11 43.5 -30.5t29.5 -49.5t18 -54.5t10.5 -63.5t4 -57t1.5 -53q0 -15 15 -15 h37q22 0 38.5 21t16.5 57v178q0 25 18 42.5t43 17.5h143q28 0 48 20t20 48zM226 295v443q0 5 -5 5h-148q-5 0 -5 -5v-443q0 -5 5 -5h148q5 0 5 5z"/>
<glyph unicode="" d="M453 70l-226 -172q-19 -13 -41.5 -9.5t-36.5 21.5q-18 24 -8 51l86 278l-227 174q-32 25 -19 67q6 18 20.5 29t31.5 11h280l87 278q5 17 19.5 28t32.5 11z"/>
<glyph unicode="" d="M681 811q104 0 175.5 -76t71.5 -185q0 -257 -458 -637l-1 -1q-9 -7 -16 -7q-3 0 -9 2q-3 1 -8 6q-458 380 -458 637q0 109 71.5 185t175.5 76q56 0 105.5 -20.5t72.5 -39t50 -46.5q27 28 50 46.5t72.5 39t105.5 20.5zM453 -42q430 359 430 592q0 91 -58.5 153t-143.5 62 q-49 0 -92.5 -18.5t-62.5 -34.5t-45 -43l-6 -7q-1 -1 -2.5 -2t-2.5 -2q-6 -6 -17 -6q-12 0 -17 6q0 1 -2 2.5t-2 2.5l-7 6q-26 27 -45 43t-62.5 34.5t-92.5 18.5q-85 0 -143.5 -62t-58.5 -153q0 -233 430 -592z"/>
<glyph unicode="" d="M0 112v492q0 67 48.5 115.5t115.5 48.5h246v-103h-246q-26 0 -43.5 -17.5t-17.5 -43.5v-492q0 -26 17.5 -43.5t43.5 -17.5h246v-103h-246q-67 0 -115.5 48.5t-48.5 115.5zM271 260v196q0 18 12 29.5t30 11.5h228v156q0 22 21 30t35 -7l295 -295q9 -10 9.5 -24t-9.5 -22 l-295 -295q-12 -10 -23 -10q-4 0 -12 2q-21 9 -21 31v155h-228q-18 0 -30 12t-12 30z"/>
<glyph unicode="" d="M0 19v677q0 47 33.5 80.5t80.5 33.5h677q47 0 80.5 -33.5t33.5 -80.5v-677q0 -47 -33.5 -80.5t-80.5 -33.5h-677q-47 0 -80.5 33.5t-33.5 80.5zM122 607q0 -33 23.5 -56.5t56.5 -23.5t56.5 23.5t23.5 56.5q0 32 -23.5 56t-56.5 24t-56.5 -24t-23.5 -56zM342 462v-416 q0 -5 5.5 -11t10.5 -6h119q7 0 12 5.5t5 11.5v226q0 94 76 94q33 0 46 -15t13 -50v-255q0 -6 5 -11.5t12 -5.5h120q6 0 11.5 5.5t5.5 11.5v281q0 80 -46 121.5t-129 41.5q-78 0 -118 -42q0 13 -2 20q-3 11 -15 11h-115q-6 0 -11 -5t-5 -12zM125 462v-416q0 -6 5.5 -11.5 t12.5 -5.5h117q7 0 12.5 5.5t5.5 11.5v416q0 17 -18 17h-117q-6 0 -12 -5t-6 -12z"/>
<glyph unicode="" d="M27 373q-18 55 3 115.5t58 111.5q36 50 87.5 87t111.5 36q31 0 55.5 -18.5t34.5 -48.5q8 -33 5 -68l138 -103q107 62 180 12q50 -39 48 -119t-52 -167l196 -187q9 -12 3.5 -22t-17.5 -10q-5 0 -8 2l-236 134q-69 -74 -146 -98.5t-127 12.5q-33 25 -43.5 73t4.5 104 l-139 102q-74 -32 -123 4q-22 18 -33 48zM102 412q-9 -14 3 -26q11 -6 23 -6q24 0 59.5 27t66.5 68q10 15 -3 26q-16 11 -27 -3q-36 -48 -63 -66q-26 -18 -33 -16q-15 10 -26 -4zM233 351l166 -124q4 -4 11 -4q8 0 14 7q12 15 -3 26l-158 118q-15 -13 -30 -23zM404 128 q-5 -5 -4 -13t7 -12q13 -10 32 -10q35 0 79 32.5t88 88.5q12 14 -4 25q-14 12 -25 -4q-43 -57 -91 -87q-18 -13 -35 -16q-17 -4 -22 1q-16 11 -25 -5z"/>
<glyph unicode="" d="M831 732l-1 -188q0 -9 -6.5 -15.5t-15.5 -6.5q-10 0 -16 6q-7 7 -7 16v132l-289 -303q-16 -16 -32 0q-17 16 -1 32l292 305l-143 -1q-9 0 -16 7t-7 16t6.5 16t16.5 7h196q2 0 3 -1q4 0 5 -1h1q1 0 4 -3h1l2 -1v-1l3 -4l1 -1q0 -1 0.5 -1t0.5 -1v-2q2 -4 2 -6v-1zM740 468 q10 0 16.5 -6.5t6.5 -15.5v-397q0 -37 -26 -62.5t-64 -25.5h-508q-37 0 -63.5 25.5t-26.5 62.5v550q0 37 26.5 62.5t63.5 25.5h365q9 0 15.5 -6.5t6.5 -15.5q0 -10 -6.5 -16.5t-15.5 -6.5h-365q-19 0 -31.5 -12.5t-12.5 -30.5v-550q0 -18 12.5 -30.5t31.5 -12.5h508 q19 0 31.5 12.5t12.5 30.5v397q0 9 7 15.5t16 6.5z"/>
<glyph unicode="" d="M494 50h246q26 0 44 18t18 43v494q0 25 -18 43t-44 18h-246v103h246q66 0 115.5 -48.5t49.5 -115.5v-494q0 -66 -49 -115t-116 -49h-246v103zM0 259v198q0 17 12 28.5t30 11.5h229v157q0 22 20 31q21 6 36 -8l296 -296q8 -10 8.5 -24t-8.5 -22l-296 -296q-10 -10 -23 -10 q-3 0 -13 2q-20 9 -20 31v156h-229q-18 0 -30 12t-12 29z"/>
<glyph unicode="" d="M0 505v100q0 17 12 29t30 12h173q-1 5 -1 13v15q0 58 10.5 76.5t46.5 18.5h363q36 0 46.5 -18t10.5 -77v-13q0 -2 -0.5 -7t-0.5 -8h173q18 0 30 -12t12 -29v-100q0 -68 -89 -138q-89 -72 -216 -93q-29 -5 -49.5 -22t-20.5 -38q0 -14 5 -20q5 -10 25 -23q18 -14 26 -24 q13 -21 6 -47q-1 -3 2.5 -6.5t10.5 -5.5q11 -5 36 -10q62 -14 78 -31q13 -10 16 -55q2 -45 -19 -45h-528q-10 0 -15 13t-3 32q1 43 15 55q21 18 78 31q26 6 36 10q8 2 11.5 5.5t2.5 6.5q-2 5 -2 14v12q0 4 1 7q2 10 4 12q2 4 7 8l4 4q0 1 4 4l4 3q2 2 5 3q3 2 5 4l15 10 q15 11 15 33q0 21 -20.5 38t-50.5 22q-122 21 -215 93q-89 70 -89 138zM82 563v-58q0 -26 49 -67q54 -45 132 -70q-24 80 -41 195h-140zM642 368q78 25 132 70q49 41 49 67v58h-141q-13 -105 -40 -195z"/>
<glyph unicode="" d="M1 19v678q0 47 33 80.5t80 33.5h678q47 0 80.5 -33.5t33.5 -80.5v-678q0 -47 -33.5 -80t-80.5 -33h-199v14q0 1 0.5 20t0.5 37q3 82 -16 130q-12 27 -38 39q117 12 174 68t57 166q0 81 -53 142q5 20 5 53q0 65 -24 104h-7q-44 3 -86 -21q-12 -6 -37 -22q-26 -16 -39 -23 q-56 4 -77 4t-77 -4q-20 10 -38 23q-43 28 -77 38q-17 7 -47 5h-7q-24 -36 -24 -104q0 -34 5 -53q-51 -58 -51 -142q0 -110 53.5 -165t168.5 -68q-38 -15 -54 -74l-29 -8q-17 -5 -30 -5q-20 0 -38 9q-24 11 -49 44l-22 28q-24 26 -58 26q-22 0 -22 -8q0 -13 12 -19 q14 -7 18 -11q23 -19 34 -42q11 -26 14 -31q17 -34 45 -51q24 -15 75 -15q20 0 47 6v-10q-1 -3 -1 -10q0 -3 0.5 -14.5t0.5 -20.5q2 -23 -1 -35h-187q-47 0 -80 33t-33 80z"/>
<glyph unicode="" d="M838 440v-3q51 -28 81.5 -78.5t30.5 -108.5q0 -86 -63 -148t-150 -62q-3 0 -7.5 0.5t-6.5 0.5h-179v45h188l6 -1q68 0 116.5 49t48.5 117q0 49 -26.5 90t-72.5 60l-11 6v33q0 102 -79 183q-74 74 -186 74q-74 0 -137 -39.5t-95 -106.5l-12 -24l-22 16q-31 22 -65 22 q-46 0 -77.5 -31t-31.5 -76q0 -5 4 -27l4 -23l-14 -8q-38 -23 -60.5 -62t-22.5 -82q0 -69 47.5 -118t115.5 -49v-3h201v-45h-197q-87 0 -148.5 63.5t-61.5 150.5q0 51 24 97.5t66 77.5q-3 15 -3 28q0 63 45 107.5t109 44.5q36 0 70 -17q41 69 111.5 109.5t151.5 40.5 q130 0 216 -89q92 -90 92 -214zM606 229q-7 -7 -16.5 -7t-16.5 7l-97 97v-330q0 -10 -6.5 -16.5t-15.5 -6.5q-10 0 -16.5 6.5t-6.5 16.5v330l-97 -97q-16 -16 -32 0t0 32l136 136q1 1 7 4q3 2 9 2t8 -2q6 -2 8 -4l136 -136q14 -16 0 -32z"/>
<glyph unicode="" d="M2 218q-2 20 4 79l4 40q1 19 5 36q19 86 39 130t57 94q9 12 25 25l25 25q40 42 133 79q6 2 19.5 7t19.5 7q34 14 86 29l1 1q46 12 90 12q48 0 121 -16q61 -12 98 -12h2q15 0 34 3q21 3 37 3q32 0 43 -17q21 -28 13 -81l-2 -19q-3 -32 -3 -39q0 -26 8 -43q11 -22 15 -42 q2 -18 4 -24q19 -108 -1.5 -191.5t-78.5 -165.5q-54 -71 -106 -113.5t-124 -66.5q-27 -10 -61 -14q-43 -7 -114 -10h-17q-56 0 -107 9q-49 9 -107 9h-2q-20 0 -42 -6q-22 -5 -46 -7h-1q-41 0 -60 33q-17 33 -3 78q10 29 4 78q-1 8 -2.5 17.5t-3 16.5t-1.5 11q-5 25 -5 45z "/>
<glyph unicode="" d="M786 228l92 -92q26 -26 26 -62t-26 -62l-88 -88q-23 -23 -57 -23q-11 0 -20 3q-62 20 -125.5 46t-162 84.5t-166.5 126.5t-127 167t-85 163t-45 124q-6 19 -0.5 41.5t19.5 36.5l88 88q25 25 62 25t62 -25l92 -92q26 -26 26 -62q0 -38 -26 -62l-46 -46q-12 -12 -12 -30 q0 -17 12 -31l277 -276q12 -12 30 -12t30 12l46 46q26 26 62 26t62 -26zM117 725l152 -152l24 24q13 13 13 30t-13 30l-92 92q-12 12 -29.5 12t-30.5 -12zM790 -12l-153 153q-24 -16 -51 -16q-38 0 -62 26l-277 275q-25 27 -25 63q0 27 16 51l-153 153l-32 -32 q-14 -14 -8 -32q18 -58 43.5 -120t81.5 -156.5t121 -159.5t159 -121t156 -81t120 -43q18 -6 32 8zM822 20l24 24q13 13 13 30.5t-13 29.5l-92 92q-13 13 -30.5 13t-29.5 -13l-24 -24z"/>
<glyph unicode="" d="M0 111v494q0 67 48.5 115.5t115.5 48.5h576q67 0 116 -49t49 -115v-494q0 -66 -49 -115t-116 -49h-576q-67 0 -115.5 48.5t-48.5 115.5zM103 605v-494q0 -25 18 -43t43 -18h576q26 0 44 18t18 43v494q0 25 -18 43t-44 18h-576q-25 0 -43 -18t-18 -43z"/>
<glyph unicode="" d="M91 -28v772q0 27 19.5 47t47.5 20h591q27 0 46.5 -20t19.5 -47v-772q0 -27 -19.5 -47t-46.5 -20q-28 0 -46 20l-250 249l-249 -249q-20 -20 -46 -20q-28 0 -47.5 20t-19.5 47zM182 31l271 272l271 -272v689h-542v-689z"/>
<glyph unicode="" d="M0 19v677q0 47 33.5 80.5t80.5 33.5h677q47 0 80.5 -33.5t33.5 -80.5v-677q0 -47 -33.5 -80.5t-80.5 -33.5h-677q-47 0 -80.5 33.5t-33.5 80.5zM114 518q1 -38 26 -92q19 -42 40 -79q94 -162 237 -254q43 -26 84 -41q55 -21 83 -28.5t61.5 -4.5t71.5 23q47 21 60 51 q6 14 11 42t2 36q-4 8 -14 13q-11 4 -22 12l-42 24q-9 6 -18 11l-22 12l-21 14q-11 7 -22 7q-15 0 -27 -16l-6.5 -6.5t-6.5 -7.5q-9 -10 -10 -11q-1 -2 -5 -6q-1 -2 -4 -5t-4 -5t-4 -5t-4 -5q-24 -28 -47 -12q-13 8 -23 13q-115 64 -186 185q-20 30 -17 45q0 9 14 20l9 6 q1 1 3.5 2.5t3.5 2.5t5 6t6 7q3 3 6 7q6 6 7 8q9 11 11 25q2 8 -8 36q-4 8 -4 11l-17 45q-3 7 -8 22t-8 23t-7 24q-4 11 -6 13q-4 5 -22 9q-34 4 -45 2q-4 0 -7 -0.5t-5 -0.5h-2h-5q-42 -20 -69 -71t-23 -107z"/>
<glyph unicode="" d="M906 639q-52 -23 -107 -29q59 34 82 103q-54 -32 -118 -46q-56 59 -136 59q-77 0 -131.5 -54.5t-54.5 -131.5q0 -23 5 -42q-112 5 -211.5 56.5t-170.5 137.5q-26 -43 -26 -94q0 -47 22 -87.5t61 -66.5q-45 2 -85 23v-2q0 -66 42.5 -117.5t106.5 -64.5q-28 -7 -49 -7 q-14 0 -34 4q18 -57 65.5 -92.5t107.5 -36.5q-101 -80 -231 -80q-26 0 -43 3q129 -84 284 -84q165 0 289 83q118 79 179 200q61 122 61 246q0 6 -0.5 14t-0.5 10q55 40 93 96z"/>
<glyph unicode="" d="M224 403v118q0 9 6.5 16t15.5 7h72v59q0 206 212 208q71 0 134 -18q19 -6 17 -25l-16 -115q-2 -8 -9 -15q-9 -5 -18 -4q-37 10 -80 10q-30 0 -38 -9t-8 -40v-51h129q9 0 16 -7.5t7 -17.5l-10 -118q0 -9 -6.5 -14.5t-15.5 -5.5h-120v-453q0 -9 -6.5 -16t-15.5 -7h-149 q-9 0 -16 7t-7 16v453h-72q-9 0 -15.5 6.5t-6.5 15.5z"/>
<glyph unicode="" d="M1 346q0 121 73 204l-1 2l1 1q-13 32 -13 81q0 79 24 115h4q55 0 100 -23q11 -5 43 -25l44 -30q72 20 177 20q104 0 178 -20l44 30q46 31 88 43q21 5 54 5h5q24 -37 24 -115q0 -48 -13 -81v-1l-1 -2q74 -85 74 -204q0 -208 -111 -293.5t-342 -85.5t-341.5 85.5 t-110.5 293.5zM123 218q0 -125 113 -166q26 -10 72 -17q50 -7 146 -7q101 0 150 7q89 13 135 56.5t46 128.5q0 79 -48 123t-129 44q-45 0 -77 -4q-36 -3 -77 -3t-77 3q-32 4 -77 4q-82 0 -129.5 -44t-47.5 -125zM256 294q12 23 32 23q19 0 32.5 -23t13.5 -56 q0 -32 -13.5 -54.5t-32.5 -22.5t-32 22t-13 55q0 34 13 56zM586 184q13 -23 33 -23q19 0 32 22.5t13 54.5q0 33 -13 56t-32 23q-20 0 -33.5 -23t-13.5 -56q0 -31 14 -54zM433 152q10 -5 20 -5q12 0 20.5 5t8.5 10q0 6 -8.5 10.5t-20.5 4.5t-20.5 -4.5t-8.5 -10.5t9 -10z M390 108q-1 6 2 9q9 11 16 -3q12 -37 45 -37q15 0 28 10.5t17 26.5q4 9 12.5 6t6.5 -12q-8 -23 -25 -37t-39 -14q-21 0 -38.5 14t-24.5 37z"/>
<glyph unicode="" d="M147 -106h612q23 0 39.5 16.5t16.5 40.5v475q0 23 -16.5 39.5t-39.5 16.5h-12v51q0 119 -86.5 204t-207.5 85q-115 0 -200.5 -78.5t-93.5 -191.5q0 -10 6 -17q7 -7 17 -7h91q8 0 14.5 6t7.5 14q6 57 52 97.5t106 40.5q64 0 111 -44.5t47 -106.5v-53h-464 q-23 0 -39.5 -16.5t-16.5 -39.5v-475q0 -24 16.5 -40.5t39.5 -16.5zM657 437v98q0 79 -60.5 137.5t-143.5 58.5q-72 0 -129 -45t-71 -113h-45q14 87 84 145.5t161 58.5q103 0 176 -71.5t73 -172.5v-96h57q11 0 11 -11v-475q0 -12 -11 -12h-612q-11 0 -11 12v475q0 11 11 11 h510zM365 30h176q13 0 19 10q6 9 3 20l-35 94q36 33 36 82q0 46 -32.5 78.5t-78.5 32.5t-78.5 -32.5t-32.5 -78.5q0 -49 36 -82l-35 -94q-3 -11 3 -20q6 -10 19 -10zM397 75l29 79q7 17 -9 27q-30 20 -30 55q0 27 19.5 46t46.5 19t46.5 -19t19.5 -46q0 -35 -30 -55 q-16 -10 -9 -27l29 -79h-112z"/>
<glyph unicode="" d="M68 697h770q38 0 64 -26.5t26 -63.5v-498q0 -37 -26 -63.5t-64 -26.5h-770q-38 0 -64 26.5t-26 63.5v498q0 37 26 63.5t64 26.5zM883 539v68q0 19 -13 32t-32 13h-770q-19 0 -32 -13t-13 -32v-68h860zM883 494h-860v-91h860v91zM883 358h-860v-249q0 -19 13 -32t32 -13 h770q19 0 32 13t13 32v249zM759 132h-114q-23 0 -39.5 16.5t-16.5 39.5v23q0 23 16.5 39.5t39.5 16.5h114q23 0 39.5 -16.5t16.5 -39.5v-23q0 -23 -16.5 -39.5t-39.5 -16.5zM634 211v-23q0 -11 11 -11h114q11 0 11 11v23q0 11 -11 11h-114q-11 0 -11 -11z"/>
<glyph unicode="" d="M0 674v91q0 19 15 32q13 13 30 13h2q170 -9 323 -77.5t270 -186.5q117 -116 185.5 -269t78.5 -324q3 -17 -13 -33q-14 -14 -32 -14h-91q-18 0 -30.5 12.5t-14.5 30.5q-8 134 -62.5 254.5t-148.5 214.5t-214.5 148.5t-254.5 62.5q-18 2 -30.5 14.5t-12.5 30.5zM0 378v92 q0 20 15 33q13 13 30 13q1 0 2 -1h2q219 -17 383 -177q159 -162 177 -384q1 -19 -12 -34q-14 -14 -33 -14h-91q-17 0 -30 12t-15 30q-14 152 -124 262t-262 123q-17 2 -29.5 15.5t-12.5 29.5zM0 42q0 55 40 95.5t96 40.5q54 0 96 -40q40 -40 40 -96q0 -57 -40.5 -96.5 t-95.5 -39.5q-56 0 -96 40t-40 96z"/>
<glyph unicode="" d="M1 76v187q0 15 2 23l6 22l117 357q10 31 37.5 50.5t59.5 19.5h461q32 0 59 -19.5t37 -50.5l117 -357l6 -22q3 -12 3 -23v-187q0 -40 -28 -67.5t-67 -27.5h-716q-39 0 -66.5 27.5t-27.5 67.5zM801 358l-92 284q-2 7 -9.5 12.5t-15.5 5.5h-461q-19 0 -26 -18l-92 -284h696z M76 263v-187q0 -8 5.5 -14t13.5 -6h716q19 0 19 20v187q0 19 -19 19h-716q-19 0 -19 -19zM520 170q0 19 13.5 32.5t33.5 13.5q19 0 32.5 -13.5t13.5 -32.5q0 -20 -13.5 -33.5t-32.5 -13.5q-20 0 -33.5 13.5t-13.5 33.5zM670 170q0 19 13.5 32.5t33.5 13.5q19 0 33 -13.5 t14 -32.5q0 -20 -13.5 -33.5t-33.5 -13.5t-33.5 13.5t-13.5 33.5z"/>
<glyph unicode="" d="M1 352v112q0 32 22 54t53 22h245q109 0 241.5 58.5t211.5 137.5q31 0 53.5 -22.5t22.5 -53.5v-180q24 -6 40 -26t16 -46q0 -25 -16 -45.5t-40 -25.5v-182q0 -31 -22.5 -53t-53.5 -22q-63 64 -182 123q-122 59 -223 69q-42 -12 -53 -50q-10 -38 17 -67q-16 -21 -11 -43.5 t20 -40.5t47 -44q-9 -20 -32.5 -31.5t-53.5 -13.5q-67 -3 -96 27q-2 7 -9 28.5t-11 32.5q-24 72 -24 132q0 38 11 74h-98q-31 0 -53 22.5t-22 53.5zM397 470v-125q95 -14 197.5 -59t179.5 -106v456q-80 -62 -182.5 -107.5t-194.5 -58.5z"/>
<glyph unicode="" d="M849 62l-111 107q1 6 1 26v219q0 92 -52.5 166.5t-137.5 104.5q3 13 3 27q0 41 -28.5 70t-70.5 29q-41 0 -70.5 -29t-29.5 -70q0 -13 5 -27q-85 -30 -138 -104.5t-53 -166.5v-219q0 -20 1 -26l-111 -107q0 -19 12.5 -31.5t30.5 -12.5h254v-7q-1 -3 -1 -6q0 -42 29 -71 t71 -29t70.5 29t28.5 71q0 3 -0.5 7.5t-0.5 5.5h255q18 0 30.5 13t12.5 31zM397 712q0 23 16.5 39t39.5 16t39.5 -16t16.5 -39q0 -5 -4 -15q-27 4 -51 4q-28 0 -53 -5q-4 5 -4 16z"/>
<glyph unicode="" d="M0 247q0 17 13 32l81 79l-81 78q-13 15 -13 32q0 14 9 25.5t23 14.5l111 28q-33 99 -33 122q0 17 12.5 29.5t29.5 12.5q11 0 60 -13q15 -6 35 -11l27 -9l27 110q4 14 15.5 23.5t25.5 9.5q19 0 30 -13l81 -81l78 81q15 13 30 13q36 0 42 -33l28 -110l27 9q20 5 35 11 q47 13 60 13q17 0 29.5 -13t12.5 -29q0 -15 -24 -94l-9 -28l110 -28q14 -3 23 -14.5t9 -25.5q0 -18 -12 -32l-82 -78l82 -79q12 -13 13 -30q0 -16 -9.5 -27.5t-23.5 -14.5l-110 -28l9 -27q5 -20 11 -35q13 -49 13 -60q0 -17 -12.5 -29.5t-29.5 -12.5q-18 0 -60 14 q-4 1 -34 10l-28 9l-28 -110q-3 -14 -15 -23.5t-26 -9.5q-16 0 -31 13l-78 81l-81 -81q-11 -13 -30 -13q-14 0 -25.5 9.5t-15.5 23.5l-27 110l-27 -9l-35 -10q-45 -14 -60 -14q-17 0 -29.5 12.5t-12.5 29.5q0 33 24 95l9 27l-111 28q-13 3 -22.5 14.5t-9.5 25.5z"/>
<glyph unicode="" d="M1 87v303q0 23 16.5 39.5t39.5 16.5h164q10 6 15 10t21 23q14 16 16 18q13 15 15 18q14 14 37 32q41 33 45 82q4 63 28 90q15 16 52 16q55 0 91.5 -43t36.5 -101q0 -42 -26 -96l241 -1q49 0 81 -32t32 -79t-32 -78.5t-81 -31.5h-94q-6 -29 -19 -50q9 -59 -30 -105 q0 -65 -45.5 -101t-117.5 -36q-53 0 -134 25q-35 10 -43 13q-47 11 -76 11h-177q-23 0 -39.5 16.5t-16.5 40.5zM231 390v-303q17 0 38 -3q10 -3 17 -3q2 0 8 -1.5t11 -2.5l8 -2t6 -2t3 -1q2 0 19 -5q4 -1 8.5 -2t6.5 -2t3 -1q4 0 25 -7q3 0 12 -3t13 -3q3 -1 12 -3 q11 -2 13 -3q1 0 13 -2q2 0 6.5 -0.5t6.5 -1.5q4 0 13 -0.5t14 -0.5q49 0 77.5 20t28.5 60q0 18 -2 24q15 7 24.5 24t9.5 36q0 18 -9 32q27 24 27 58q0 19 -18 37q66 0 84 1h84q25 0 40 14.5t15 38.5q0 25 -15 40t-40 15q-125 0 -160 1h-160q0 2 0.5 5.5t0.5 4.5q2 13 4 19 l3 8q3 13 8 18q8 16 9 17q23 51 23 80q0 33 -19 59q-19 29 -52 29h-5q-11 0 -11 -11q-6 -28 -11 -58q-9 -60 -53 -97q-42 -35 -63 -63q-33 -42 -73 -60h-3zM110 126q0 -16 11 -27t27 -11t27 11t11 27t-11 26.5t-27 10.5t-27 -10.5t-11 -26.5z"/>
<glyph unicode="" d="M1 383q0 47 31.5 79t80.5 32l241 1q-26 54 -26 96q0 58 36.5 101t91.5 43q33 0 50 -14q23 -21 31 -92q4 -50 44 -82q23 -18 37 -32q3 -3 8.5 -9t7.5 -9l15 -18q18 -24 36 -33h164q23 0 40 -16.5t17 -39.5v-303q0 -23 -17 -40t-40 -17h-177q-20 0 -40 -4q-35 -7 -78 -20 q-82 -25 -135 -25q-72 0 -117.5 36t-45.5 101q-39 46 -30 105q-13 20 -19 50h-94q-48 0 -80 32t-32 78zM58 383q0 -24 15 -38.5t40 -14.5h84q18 -1 84 -1q-18 -18 -18 -37q0 -34 27 -58q-9 -14 -9 -32q0 -42 34 -60q-2 -6 -2 -24q0 -40 28.5 -60t77.5 -20q25 0 46 5 q24 4 83 19l17 5q18 5 19 5t3 1t6 2l8 2q5 1 11.5 2.5t7.5 1.5q5 0 17 3q23 3 37 3v303h-2q-30 13 -53 37q-11 11 -20 23l-23 26q-16 16 -40 37q-44 37 -53 97q-4 26 -11 58l-1 6q-1 5 -10 5h-5q-31 0 -51 -27t-20 -61q0 -32 24 -80l2 -4q2 -4 4 -8.5t2 -5.5q1 -1 2.5 -4 t3 -7.5t2.5 -5.5q0 -4 3 -8q2 -8 3 -10q1 -6 1 -19h-159q-35 -1 -160 -1q-25 0 -40 -15t-15 -40zM720 126q0 -16 11 -27t27 -11t26.5 10.5t10.5 27.5q0 16 -10.5 26.5t-26.5 10.5t-27 -10.5t-11 -26.5z"/>
<glyph unicode="" d="M76 355q0 55 42.5 91t101.5 36q46 0 96 -25v63l1 178q0 48 31.5 80.5t79.5 32.5q47 0 78.5 -32.5t31.5 -80.5v-95q31 -5 50 -18q61 10 105 -30q65 0 101 -45.5t36 -117.5q0 -54 -24 -134q0 -1 -4 -15q-5 -15 -5 -16q0 -2 -3.5 -14.5t-4.5 -15.5q-3 -10 -6 -29 q-2 -18 -2 -30v-176q0 -23 -16.5 -40t-39.5 -17h-304q-23 0 -39.5 16.5t-16.5 40.5v164q-2 5 -8 13l-9 9q-5 5 -10 9q-3 2 -6 5l-35 31q-11 11 -33 37q-32 40 -82 44q-64 6 -90 29q-16 15 -16 52zM133 355v-5q-1 -6 4 -10l6 -2q6 -1 25.5 -4.5t32.5 -5.5q60 -9 97 -53 q32 -39 64 -63q43 -35 59 -74v-2h304v14q3 25 3 26q1 11 5 25q1 9 3 12q0 3 3 14q1 4 7 25q2 7 3.5 12.5l4.5 16.5q5 18 5 19l9 36q0 3 2 17q3 15 3 39q0 49 -20 77.5t-60 28.5q-17 0 -24 -2q-7 15 -24 24.5t-36 9.5t-32 -10q-22 27 -49.5 28.5t-45.5 -18.5v84q-1 19 -1 84 q0 25 -14.5 40t-38.5 15q-25 0 -40 -15t-15 -40v-160q-1 -36 -1 -160q-10 0 -22 3t-20 7t-9 5q-3 0 -11 5q-8 3 -10 5q-51 23 -80 23q-33 0 -60 -20t-27 -51zM647 53q0 -16 11 -27t27 -11q17 0 27.5 10.5t10.5 27.5t-10.5 27.5t-27.5 10.5q-16 0 -27 -11t-11 -27z"/>
<glyph unicode="" d="M76 361q0 33 15 50q23 25 91 31q50 4 82 44q22 26 33 37l17 16l18 15q24 18 33 36v164q0 23 16.5 40t39.5 17h304q23 0 39.5 -17t16.5 -40v-177q0 -16 2 -26q0 -6 2 -12q0 -2 2 -14q3 -9 3 -12l8 -27v-2q1 -2 2 -5.5t2 -6.5q3 -13 4 -13q24 -81 24 -135q0 -73 -35.5 -118 t-101.5 -45q-45 -39 -105 -30q-20 -13 -50 -19v-94q0 -49 -31.5 -81t-78.5 -32t-79 32.5t-32 80.5l-1 177v64q-54 -26 -96 -26q-58 0 -101 36.5t-43 91.5zM647 663q0 -16 11 -27t27 -11q17 0 27.5 10.5t10.5 27.5t-10.5 27.5t-27.5 10.5q-16 0 -27 -11t-11 -27zM133 371v-5 v-5q0 -32 28 -52q26 -19 59 -19q32 0 80 24q1 0 6.5 3t10.5 5.5l7 3.5q20 8 23 9q21 3 25 3q0 -124 1 -160v-160q0 -25 15 -40t40 -15q24 0 38.5 15t14.5 40q0 65 1 84v84q18 -18 37 -18q34 0 58 27q13 -9 32 -9t36 9.5t24 24.5q6 -2 24 -2q80 0 80 106v17q-1 13 -4 32 q-1 3 -3 13.5t-4 19.5q-4 14 -4 15q0 2 -5 17q-3 13 -4 15l-2 8q-22 76 -22 119h-304v-3q-9 -26 -36 -53q-11 -11 -23 -20q-30 -24 -64 -63q-36 -44 -96 -53q-34 -5 -59 -11l-6 -1q-2 -2 -4 -5z"/>
<glyph unicode="" d="M36 532q35 84 97 146q134 132 320 132t320 -132q132 -132 132 -320q0 -92 -34.5 -174.5t-97.5 -145.5q-133 -133 -320 -133t-320 133q-63 63 -97.5 145.5t-34.5 174.5t35 174zM426 663l-278 -278q-11 -11 -11 -27q0 -17 11 -28l278 -278q11 -11 27 -11q15 0 28 11l42 42 q11 13 11 27q0 15 -11 29l-139 139h346q17 0 28.5 11t11.5 27v59q0 16 -12 28t-28 12h-346l139 139q11 13 11 28q0 14 -11 28l-42 42q-11 11 -27 11q-15 0 -28 -11z"/>
<glyph unicode="" d="M36 533q34 83 97 145q132 132 320 132t320 -132q63 -63 97.5 -145.5t34.5 -174.5q0 -188 -132 -320t-320 -132t-320 132t-132 320q0 91 35 175zM137 388v-59q0 -16 11.5 -27.5t27.5 -11.5h347l-139 -140q-12 -11 -12 -27t12 -28l42 -42q11 -11 27 -11q15 0 28 11l277 277 q11 12 11.5 28t-11.5 28l-277 277q-11 11 -28 11q-16 0 -27 -11l-42 -42q-12 -11 -12 -27t12 -28l139 -140h-347q-17 0 -28 -11t-11 -27z"/>
<glyph unicode="" d="M36 533q34 83 97 145q132 132 320 132t320 -132q63 -63 97.5 -145.5t34.5 -174.5q0 -188 -132 -320t-320 -132t-320 132t-132 320q0 91 35 175zM426 663l-278 -277q-11 -13 -11 -28t11 -28l42 -42q11 -11 27 -11q15 0 29 11l139 140v-347q0 -16 11 -27.5t27 -11.5h59 q17 0 28.5 11.5t11.5 27.5v347l138 -140q13 -11 28 -11t29 11l41 42q26 28 0 56l-277 277q-11 11 -28 11q-16 0 -27 -11z"/>
<glyph unicode="" d="M36 533q34 83 97 145q132 132 320 132t320 -132q63 -63 97.5 -145.5t34.5 -174.5q0 -188 -132 -320t-320 -132t-320 132t-132 320q0 91 35 175zM190 428l-42 -42q-11 -13 -11 -27q0 -15 11 -29l278 -277q11 -11 27 -11q15 0 28 11l277 277q11 12 11.5 28t-11.5 28l-41 42 q-13 11 -28 11t-29 -11l-138 -140v347q0 17 -11 28t-28 11h-59q-16 0 -27.5 -11t-11.5 -28v-347l-139 140q-13 11 -28 11q-17 0 -28 -11z"/>
<glyph unicode="" d="M592 807q99 -53 158 -147t63 -197.5t-46 -206.5q-48 -90 -133 -145t-185 -65q1 -2 1 -7v-91h135q10 0 16.5 -6.5t6.5 -16.5q0 -9 -6.5 -15.5t-16.5 -6.5h-317q-9 0 -15.5 6.5t-6.5 15.5q0 10 6.5 16.5t15.5 6.5h136v91l1 5q-100 2 -192 49q-8 5 -11 14t1 17q11 20 31 9 q134 -71 278.5 -29t214.5 173t24 274.5t-181 215.5q-20 11 -9 30q5 8 14 11t17 -1zM715 444q0 -127 -90 -217.5t-217 -90.5q-128 0 -218 90t-90 218q0 127 90.5 217t217.5 90t217 -90t90 -217zM433 705q-8 1 -25 1q-16 0 -23 -1q-29 -41 -50 -101h148q-21 60 -50 101z M325 693q-76 -26 -124 -89h88q12 38 36 89zM530 604h85q-46 61 -121 88q22 -42 36 -88zM277 559h-105q-21 -45 -25 -90h118q1 40 12 90zM309 469h200q-3 52 -13 90h-174q-12 -45 -13 -90zM553 469h116q-6 51 -26 90h-102q9 -42 12 -90zM265 423h-118q5 -48 24 -90h107 q-10 43 -13 90zM508 423h-199q4 -49 14 -90h171q10 41 14 90zM540 333h105q19 42 24 90h-117q-2 -43 -12 -90zM290 287h-92q49 -68 131 -94q-23 46 -39 94zM386 182q7 -1 22 -1q16 0 23 1q31 50 50 105h-144q19 -53 49 -105zM489 194q78 25 128 93h-90q-13 -43 -38 -93z"/>
<glyph unicode="" d="M2 60q0 38 26 64l345 345q-23 99 17.5 188t138.5 131q48 22 105 22q112 0 190 -78l-250 -91l-25 -134l104 -87l251 90q-11 -104 -88 -174t-180 -70q-34 0 -72 9l-343 -343q-27 -27 -64 -27q-38 0 -65 27q-14 14 -28 27q-35 31 -53 62q-9 18 -9 39zM125 27q15 -13 32 -13 q19 0 32 13.5t13 32.5t-13 32t-32 13t-32 -13t-13 -32q0 -18 13 -33z"/>
<glyph unicode="" d="M1 591v107q0 15 11 26t26 11h829q16 0 27.5 -11t11.5 -26v-107q0 -15 -11.5 -26t-27.5 -11h-829q-15 0 -26 11t-11 26zM671 606h189v76h-189v-76zM1 306v106q0 15 11 25.5t26 10.5h829q16 0 27.5 -11t11.5 -25v-106q0 -16 -11 -27t-28 -11h-829q-15 0 -26 11t-11 27z M370 321h490v75h-490v-75zM1 18v107q0 15 11 26t26 11h829q16 0 27.5 -11t11.5 -26v-107q0 -15 -11.5 -26t-27.5 -11h-829q-15 0 -26 11t-11 26zM521 34h339v76h-339v-76z"/>
<glyph unicode="" d="M204 788v-115q39 -8 65 -39.5t26 -71.5q0 -41 -26 -72t-65 -39v-523q0 -9 -6.5 -16t-16.5 -7q-9 0 -15.5 7t-6.5 16v523q-39 8 -65 39t-26 72q0 40 26 71.5t65 39.5v115q0 9 6.5 16t15.5 7q10 0 16.5 -7t6.5 -16zM476 788v-545q39 -8 65 -39.5t26 -71.5q0 -41 -26 -72 t-65 -39v-93q0 -9 -7 -16t-16 -7t-16 7t-7 16v93q-39 8 -65 39t-26 72q0 40 26 71.5t65 39.5v545q0 9 7 16t16 7t16 -7t7 -16zM747 788v-206q39 -8 65 -39t26 -72t-26 -72t-65 -39v-432q0 -9 -6.5 -16t-16.5 -7q-9 0 -15.5 7t-6.5 16v432q-39 8 -65 39t-26 72t26 72t65 39 v206q0 9 6.5 16t15.5 7q10 0 16.5 -7t6.5 -16zM181 494q29 0 48.5 20t19.5 48t-20 48t-48 20t-47.5 -20t-19.5 -48t19.5 -48t47.5 -20zM725 403q28 0 47.5 20t19.5 48t-19.5 48t-47.5 20q-29 0 -48.5 -19.5t-19.5 -48.5q0 -28 20 -48t48 -20zM453 64q28 0 48 20t20 48 t-20 48t-48 20t-48 -20t-20 -48t20 -48t48 -20z"/>
<glyph unicode="" d="M1 346v182q0 23 16.5 39.5t39.5 16.5h208v114q0 15 10.5 26t26.5 11h302q16 0 27 -11t11 -26v-114h208q23 0 39.5 -16.5t16.5 -39.5v-182h-905zM340 584h227v76h-227v-76zM1 289h350q-1 -3 -1 -10v-75q0 -28 19 -47t47 -19h75q27 0 46.5 19t19.5 47v75q0 4 -2 10h351 v-252q0 -23 -16.5 -39.5t-39.5 -16.5h-793q-23 0 -39.5 16.5t-16.5 39.5v252zM406 204v75q0 9 10 10h75q9 0 9 -10v-75q0 -9 -9 -9h-75q-10 0 -10 9z"/>
<glyph unicode="" d="M0 -48v281q0 30 14.5 36.5t34.5 -14.5l96 -95l200 199l-199 199l-97 -97q-20 -20 -34.5 -14.5t-14.5 35.5v281q0 17 14 33q17 14 33 14h281q30 0 36.5 -14.5t-14.5 -34.5l-94 -94l199 -199l195 197l-95 96q-21 20 -14.5 34.5t36.5 14.5h281q19 0 33 -14t14 -33v-281 q0 -30 -14.5 -36.5t-34.5 14.5l-96 95l-197 -196l199 -198l94 94q20 21 34.5 14.5t14.5 -36.5v-281q0 -22 -15 -32q-14 -15 -32 -15h-281q-30 0 -36.5 14.5t14.5 34.5l98 98l-198 198l-200 -200l95 -96q21 -20 14.5 -34.5t-36.5 -14.5h-281q-19 0 -32 15q-15 10 -15 32z"/>
<glyph unicode="" d="M968 316q10 -29 -16 -48q-120 -91 -276 -91q46 -49 66 -110q9 -30 -16 -48q-120 -91 -273 -91t-273 91q-25 18 -16 48q20 61 66 110h-3q-155 0 -273 91q-26 19 -16 48q22 69 74 119t121 71q-63 48 -63 125q0 65 46 111t111 46t110.5 -46t45.5 -111q0 -80 -63 -125l26 -9 q45 42 107 42t107 -42l26 9q-63 45 -63 125q0 65 45.5 111t110.5 46t111 -46t46 -111q0 -77 -63 -125q69 -21 121 -71t74 -119zM568 631q0 -45 31.5 -77.5t77.5 -33.5h5q45 1 77 33.5t32 77.5q0 47 -32.5 79.5t-79.5 32.5q-46 0 -78.5 -33t-32.5 -79zM115 629 q0 -46 32 -79.5t77 -33.5h3h2q45 0 77 33.5t32 79.5q0 47 -32.5 80t-78.5 33t-79 -33.5t-33 -79.5zM453 494q-46 0 -78.5 -33t-32.5 -79t32.5 -78.5t78.5 -32.5t78.5 32.5t32.5 78.5t-32.5 79t-78.5 33zM227 222q33 0 66 6q33 19 66 29q-63 48 -63 125q0 41 21 77 q-40 14 -87 16h-6q-84 -1 -151 -48.5t-92 -124.5q109 -80 246 -80zM679 222q138 0 246 82q-25 76 -92 123t-151 48h-6q-47 -2 -87 -16q21 -36 21 -77q0 -77 -63 -125q33 -10 66 -29q33 -6 66 -6zM699 55q-27 81 -103 130q-4 1 -8 5q-63 36 -135 36q-74 0 -135 -36 q-4 -4 -8 -5q-75 -47 -102 -132q108 -80 245 -80q138 0 246 82z"/>
<glyph unicode="" d="M20 660q17 42 52 79q71 71 172 71q102 0 173 -71q2 -1 12 -11q18 -17 27 -29q5 -6 5 -14q0 -21 -21 -25q-44 -8 -98 -30q-2 -2 -9 -2q-6 0 -15 6q-38 30 -74 30q-40 0 -68 -29t-28 -69q0 -39 35 -78q14 -16 31 -32q16 -14 33 -30l102 -101q26 -28 68 -28q27 0 41 10 q16 9 26 9q13 0 53.5 -40t40.5 -56q0 -24 -60 -47t-101 -23q-99 0 -173 70l-171 173q-72 70 -72 173q0 50 19 94zM328 495q0 25 59 47.5t102 22.5q101 0 173 -70l171 -173q72 -70 72 -173q0 -101 -71 -172q-72 -72 -172 -72q-99 0 -173 72q-5 4 -12 11q-17 15 -27 29 q-5 6 -5 15q0 10 7 16q2 4 14 7q50 9 98 31q4 2 10 2q9 0 15 -5q38 -31 73 -31q40 0 68 28t28 69q0 43 -35 79l-31 31q-4 3 -33 30l-100 102q-31 28 -70 28q-25 0 -41 -9q-17 -11 -26 -11q-10 0 -53 41q-41 39 -41 55z"/>
<glyph unicode="" d="M739 7q86 0 147.5 61.5t61.5 148.5q0 58 -30.5 108t-83.5 78v3q0 125 -89 214q-86 89 -215 89q-80 0 -150.5 -40.5t-111.5 -109.5q-34 17 -69 17q-64 0 -109.5 -44.5t-45.5 -107.5q0 -8 4 -28q-42 -31 -66 -77t-24 -97q0 -87 61.5 -149.5t148.5 -63.5h556q10 -2 15 -2z M199 531q34 0 65 -22l22 -16l11 24q32 67 95.5 107t137.5 40q109 0 182 -75q76 -76 76 -183v-33l14 -5q46 -20 73.5 -61t27.5 -90q0 -68 -48 -116.5t-116 -48.5h-1l-4 3h-563v-23l-3 23q-68 1 -116.5 50t-48.5 117q0 44 22 82.5t60 61.5l13 8l-4 23q-4 22 -4 27 q0 45 31.5 76t77.5 31z"/>
<glyph unicode="" d="M16 -47q-23 42 4 82l300 467v213h-45q-19 0 -32 13t-13 33q0 18 13 31t32 13h357q19 0 32 -13t13 -31q0 -20 -13 -33t-32 -13h-44v-214l299 -466q26 -42 4 -82q-23 -42 -70 -42h-735q-47 0 -70 42zM226 190h455l-182 285v240h-90v-239z"/>
<glyph unicode="" d="M1 80q0 81 74 149q70 67 153 67h6q6 10 27 29q3 3 29 27v12q-18 18 -29 28q-22 18 -27 28q-81 -6 -157 65q-76 70 -76 151q0 45 29 72t76 27q79 0 153 -67q74 -69 74 -149q0 -6 -2 -20l41 -36l16 8q30 17 43 22q36 19 81 42t49 25l23 12l26 13q16 8 23 11q4 2 8.5 4.5 t12 6.5t13.5 7q49 26 78 40q3 2 7 4t7 3t5.5 2.5t4.5 2.5q19 10 86 -7q12 -4 19 -4q14 -1 23 -12t9 -25q0 -20 -17 -31l-330 -229l330 -229q17 -11 17 -31q0 -14 -9 -25t-23 -12q-2 0 -23.5 -4.5t-40 -8t-23.5 -3.5q-6 0 -18 5l-397 203l-41 -36q2 -14 2 -20q0 -78 -74 -149 q-74 -67 -153 -67q-47 0 -76 27t-29 72zM94 639v-2q0 -39 50 -85q47 -38 84 -38q8 0 12 2v3q0 17 -16.5 43.5t-34.5 40.5q-44 38 -83 38q-9 0 -12 -2zM329 338l-52 -52q25 -12 39 -32l51 45l21 -13l480 332l-81 15l-461 -235zM277 430l17 -17q1 4 5 10q5 7 16 12l21 10 l-20 17q-14 -20 -39 -32zM350 358q0 16 11 27t28 11q16 0 26.5 -11t10.5 -27t-11 -27t-27 -11t-27 11t-11 27zM427 267l360 -184l81 15l-343 237zM94 80v-2q1 -1 1 -2q5 0 6 -1h5q39 0 86 40t47 82v2q-1 0 -1 2q-3 1 -10 1q-40 0 -86 -40q-48 -41 -48 -82z"/>
<glyph unicode="" d="M851 802q9 -9 9 -29v-641q0 -10 -6.5 -16.5t-16.5 -6.5q-9 0 -15.5 6.5t-6.5 16.5v633h-543q-10 0 -16.5 6.5t-6.5 16.5t6.5 16.5t16.5 6.5h551q19 0 28 -9zM181 720h551q20 0 29 -9t9 -29v-641q0 -9 -6.5 -15.5t-16.5 -6.5q-9 0 -15.5 6.5t-6.5 15.5v634h-544 q-9 0 -15.5 6.5t-6.5 16.5q0 9 6.5 15.5t15.5 6.5zM87 630h555q19 0 28 -9t9 -30v-637q0 -28 -11 -39q-10 -10 -26 -10h-555q-41 0 -41 52v632q0 41 41 41zM634 584h-543v-627v-6h543v3v630zM227 494h-46q-9 0 -15.5 6.5t-6.5 16.5q0 9 6.5 15.5t15.5 6.5h46q9 0 15.5 -6.5 t6.5 -15.5q0 -10 -6.5 -16.5t-15.5 -6.5zM521 381h-340q-9 0 -15.5 6.5t-6.5 16.5q0 9 6.5 15.5t15.5 6.5h340q9 0 15.5 -6.5t6.5 -15.5q0 -10 -6.5 -16.5t-15.5 -6.5zM521 267h-340q-9 0 -15.5 6.5t-6.5 16.5t6.5 16.5t15.5 6.5h340q9 0 15.5 -6.5t6.5 -16.5t-6.5 -16.5 t-15.5 -6.5zM521 154h-340q-9 0 -15.5 6.5t-6.5 16.5t6.5 16.5t15.5 6.5h340q9 0 15.5 -6.5t6.5 -16.5t-6.5 -16.5t-15.5 -6.5zM385 64h136q9 0 15.5 -6.5t6.5 -15.5q0 -10 -6.5 -16.5t-15.5 -6.5h-136q-10 0 -16.5 6.5t-6.5 16.5q0 9 6.5 15.5t16.5 6.5z"/>
<glyph unicode="" d="M37 561q0 103 73 176t175 73q101 0 176 -73l371 -372q7 -6 7 -15q0 -12 -21.5 -33.5t-32.5 -21.5q-9 0 -17 7l-371 371q-46 46 -112 46t-112 -45.5t-46 -112.5q0 -65 47 -112l422 -422q31 -31 75 -31t76 31.5t32 75.5t-32 76l-318 319q-16 16 -39 16t-40.5 -17t-17.5 -40 q0 -24 17 -39l269 -269q7 -9 7 -16q0 -12 -21.5 -33.5t-33.5 -21.5q-9 0 -16 7l-269 268q-43 44 -43 104t43 103.5t105 43.5q60 0 104 -43l317 -318q58 -58 58 -140t-58 -140t-140 -58q-81 0 -139 58l-422 422q-73 73 -73 176z"/>
<glyph unicode="" d="M0 -4v723q0 37 27 64t64 27h633q37 0 64 -27l90 -90q27 -27 27 -64v-633q0 -38 -26.5 -64.5t-64.5 -26.5h-723q-37 0 -64 26.5t-27 64.5zM91 403h633v316h-633v-316zM498 448v227h112v-227h-112z"/>
<glyph unicode="" d="M0 19v677q0 47 33.5 80.5t80.5 33.5h677q47 0 80.5 -33.5t33.5 -80.5v-677q0 -47 -33.5 -80.5t-80.5 -33.5h-677q-47 0 -80.5 33.5t-33.5 80.5z"/>
<glyph unicode="" d="M792 607h-678q-10 0 -16.5 6.5t-6.5 16.5q0 9 6.5 15.5t16.5 6.5h678q10 0 16.5 -6.5t6.5 -15.5q0 -10 -6.5 -16.5t-16.5 -6.5zM114 471h678q10 0 16.5 -6.5t6.5 -15.5q0 -10 -6.5 -16.5t-16.5 -6.5h-678q-10 0 -16.5 6.5t-6.5 16.5q0 9 6.5 15.5t16.5 6.5zM114 290h678 q10 0 16.5 -6.5t6.5 -15.5q0 -10 -6.5 -16.5t-16.5 -6.5h-678q-10 0 -16.5 6.5t-6.5 16.5q0 9 6.5 15.5t16.5 6.5zM114 109h678q10 0 16.5 -6.5t6.5 -15.5q0 -10 -6.5 -16.5t-16.5 -6.5h-678q-10 0 -16.5 6.5t-6.5 16.5q0 9 6.5 15.5t16.5 6.5z"/>
<glyph unicode="" d="M91 765h45q19 0 32 -13t13 -32v-45q0 -19 -13 -32t-32 -13h-45q-19 0 -32 13t-13 32v45q0 19 13 32t32 13zM136 720h-45v-45h45v45zM838 675h-589q-9 0 -15.5 6.5t-6.5 16.5q0 9 6.5 15.5t15.5 6.5h589q9 0 15.5 -6.5t6.5 -15.5q0 -10 -6.5 -16.5t-15.5 -6.5zM91 539h45 q19 0 32 -13t13 -32v-45q0 -19 -13 -32.5t-32 -13.5h-45q-19 0 -32 13.5t-13 32.5v45q0 19 13 32t32 13zM136 494h-45v-45h45v45zM249 494h589q9 0 15.5 -6.5t6.5 -15.5q0 -10 -6.5 -16.5t-15.5 -6.5h-589q-9 0 -15.5 6.5t-6.5 16.5q0 9 6.5 15.5t15.5 6.5zM91 313h45 q19 0 32 -13.5t13 -32.5v-45q0 -19 -13 -32t-32 -13h-45q-19 0 -32 13t-13 32v45q0 19 13 32.5t32 13.5zM136 267h-45v-45h45v45zM249 267h589q9 0 15.5 -6.5t6.5 -15.5q0 -10 -6.5 -16.5t-15.5 -6.5h-589q-9 0 -15.5 6.5t-6.5 16.5q0 9 6.5 15.5t15.5 6.5zM91 86h45 q19 0 32 -13t13 -32v-45q0 -19 -13 -32t-32 -13h-45q-19 0 -32 13t-13 32v45q0 19 13 32t32 13zM136 41h-45v-45h45v45zM249 41h589q9 0 15.5 -6.5t6.5 -15.5q0 -10 -6.5 -16.5t-15.5 -6.5h-589q-9 0 -15.5 6.5t-6.5 16.5q0 9 6.5 15.5t15.5 6.5z"/>
<glyph unicode="" d="M92 735v-177h46v-30h-128v30h46v131h-1q-7 -12 -26 -28l-22 24l52 50h33zM257 604v56q0 16 11 27t27 11h573q15 0 26.5 -11t11.5 -27v-56q0 -16 -11.5 -27.5t-26.5 -11.5h-573q-16 0 -27 11.5t-11 27.5zM1 273q0 41 48 74l10 8q10 5 20 13q5 4 14 15q5 6 5 16 q0 29 -31 29q-21 0 -39 -25l-26 18q26 41 68 41q29 0 48.5 -16.5t19.5 -44.5q0 -34 -48 -66q-2 -2 -10 -6q-7 -5 -10 -7q-1 -1 -9 -7q-6 -5 -13 -14q-6 -6 -6 -17h70v27h32v-57h-142q-1 6 -1 19zM257 330v56q0 16 11 27t27 11h573q15 0 26.5 -11t11.5 -27v-56 q0 -16 -11.5 -27t-26.5 -11h-573q-16 0 -27 11t-11 27zM21 34l6 -5q3 -3 7 -5q15 -10 33 -10q17 0 27 9t10 23q0 15 -11.5 24t-28.5 9h-11l-8 18l44 53l6 6l2 3h-4q-2 -1 -7 -1h-45v-24h-33v54h130v-26l-48 -56q23 -4 37.5 -19t14.5 -39q0 -29 -19.5 -48t-52.5 -19 q-30 0 -50 14q-13 6 -18 13zM257 56v56q0 16 11 27.5t27 11.5h573q15 0 26.5 -11.5t11.5 -27.5v-56q0 -15 -11.5 -26t-26.5 -11h-573q-16 0 -27 10.5t-11 26.5z"/>
<glyph unicode="" d="M170 554q0 121 84.5 188.5t218.5 67.5q83 0 197 -39q20 -72 20 -178q0 -14 -3 -26l-7 -1q-6 0 -15.5 0.5t-12.5 0.5q-16 0 -29 3q-25 84 -67.5 129t-111.5 45q-61 0 -102 -33t-41 -88q0 -56 44 -89t142 -65q86 -29 117 -46h-394q-40 64 -40 131zM18 315v86h870v-86h-870z M181 42q-1 27 -1 57v61l62 1q45 -106 90.5 -149t133.5 -43q70 0 123.5 39.5t53.5 102.5q0 75 -95 122q-38 21 -83 34q-40 12 -75 26h349q19 -34 19 -102q0 -136 -91.5 -210.5t-240.5 -74.5q-52 0 -88 7.5t-105 29.5q-4 2 -22 7l-6 2l-6 2q-2 0 -4 2q-3 2 -3 3q-2 2 -3 4 q-2 4 -2 6q-1 2 -1 8q-1 2 -1.5 5.5t-0.5 5.5q-3 24 -3 54z"/>
<glyph unicode="" d="M4 757l-3 49q6 1 12 1h11q23 0 83 -2q45 -3 81 -3q124 0 235 4q-3 -8 -1 -21q2 -8 2 -22v-5q-35 -6 -63 -4t-40.5 -3.5t-17.5 -22.5q-5 -20 -5 -64q0 -118 8 -320q5 -92 54 -142.5t138 -50.5q138 0 194.5 65t56.5 210q0 107 -16 235q-3 36 -7 52q-4 23 -9 27 q-19 19 -46 19h-13q-5 -1 -22 -1q-24 0 -32 2l1 49q56 2 96 -2q39 -4 97 -4q20 0 45 3q4 0 21 1.5t26 1.5q4 0 6 -1q1 -1 5 -1q4 -24 4 -28q0 -9 -3 -17q-17 -5 -30 -5q-44 -3 -63 -14q-11 -6 -11 -23q0 -21 2 -32q0 -1 1 -8.5t2 -13.5q2 -32 5 -107q2 -32 2 -60 q3 -51 3 -80q0 -135 -34 -194q-43 -71 -128.5 -105t-193.5 -34q-99 0 -168 27q-101 36 -138 123q-25 57 -25 189v213q0 38 -4 72q-4 31 -28 37q-27 8 -64 8q-20 0 -26 2zM1 -94v90h904v-90h-904z"/>
<glyph unicode="" d="M1 37v642q0 23 16.5 39.5t39.5 16.5h793q23 0 39.5 -16.5t16.5 -39.5v-642q0 -23 -16.5 -39.5t-39.5 -16.5h-793q-23 0 -39.5 16.5t-16.5 39.5zM76 460h226v163h-226v-163zM340 460h227v163h-227v-163zM604 460h226v163h-226v-163zM76 258h226v163h-226v-163zM340 258 h227v163h-227v-163zM604 258h226v163h-226v-163zM76 56h226v165h-226v-165zM340 56h227v165h-227v-165zM604 56h226v165h-226v-165z"/>
<glyph unicode="" d="M184 584l115 35l35 116l36 -116l115 -35l-115 -35l-36 -115l-35 115zM463 660l58 18l18 57l18 -57l57 -18l-57 -18l-18 -58l-18 58zM1 78q0 19 14 30l775 612q10 8 23 8q17 0 29 -14l15 -16q22 -24 34 -45q7 -13 7 -21q0 -20 -15 -30l-775 -613q-8 -8 -23 -8 q-18 0 -29 14l-15 17q-23 24 -34 44q-6 14 -6 22zM632 547l46 -59l181 143l-46 59zM126 434l58 17l18 58l17 -58l58 -17l-58 -19l-17 -57l-18 57zM755 415l57 18l18 58l18 -58l58 -18l-58 -18l-18 -57l-18 57z"/>
<glyph unicode="" d="M1 164v199q0 24 11.5 51.5t28.5 44.5l109 109q16 16 45 28t52 12h39v97q0 16 11 27t26 11h544q16 0 27.5 -11t11.5 -27v-541q0 -15 -11.5 -26t-27.5 -11h-37v-3q0 -62 -44 -106.5t-107 -44.5q-62 0 -106.5 44.5t-44.5 106.5v3h-150v-3q0 -62 -44.5 -106.5t-106.5 -44.5 t-106.5 44.5t-44.5 106.5v3h-38q-15 0 -26 11.5t-11 25.5zM285 513h-38q-20 0 -30 -12l-110 -108q-12 -14 -12 -30v-31h190v181zM170 124q0 -23 17 -39.5t40 -16.5t39.5 16.5t16.5 39.5t-16.5 39.5t-39.5 16.5t-40 -16.5t-17 -39.5zM623 124q0 -23 16.5 -39.5t39.5 -16.5 t40 16.5t17 39.5t-16.5 39.5t-40.5 16.5q-23 0 -39.5 -16.5t-16.5 -39.5z"/>
<glyph unicode="" d="M1 358q0 188 132 320q134 132 320 132t320 -132q132 -132 132 -320q0 -92 -34.5 -174.5t-97.5 -145.5q-133 -133 -320 -133q-63 0 -129 19q35 53 47 97l6 23q0 2 9 38q14 54 16 63q14 -24 44.5 -40.5t65.5 -16.5q108 0 176.5 88t68.5 222q0 106 -78 181q-82 79 -209 79 q-149 0 -242 -93q-81 -84 -81 -190q0 -63 24 -109t69 -64q3 -1 9 -1q4 0 6 1q6 6 7 9q0 2 1 4t1 3q1 1 1 3l1 4q0 5 1 7q4 16 5 18q2 12 -7 25q-30 33 -30 88q0 91 62.5 154t160.5 63q87 0 138 -47.5t51 -125.5q0 -102 -41.5 -171.5t-102.5 -69.5q-35 0 -58 27 q-14 15 -14.5 39t5 43.5t17.5 54.5q3 7 4 11q14 44 14 73q0 30 -16 49t-45 19q-37 0 -62 -33.5t-25 -83.5q-1 -19 6 -48q1 -12 8 -23l-30 -128l-17 -74q-9 -37 -11 -45q-11 -55 -8 -103q-121 52 -195.5 164.5t-74.5 249.5z"/>
<glyph unicode="" d="M1 358q0 188 132 320q134 132 320 132t320 -132q132 -132 132 -320q0 -92 -34.5 -174.5t-97.5 -145.5q-133 -133 -320 -133q-63 0 -129 19q35 53 47 97l6 23q0 2 9 38q14 54 16 63q14 -24 44.5 -40.5t65.5 -16.5q108 0 176.5 88t68.5 222q0 106 -78 181q-82 79 -209 79 q-149 0 -242 -93q-81 -84 -81 -190q0 -63 24 -109t69 -64q3 -1 9 -1q4 0 6 1q6 6 7 9q0 2 1 4t1 3q1 1 1 3l1 4q0 5 1 7q4 16 5 18q2 12 -7 25q-30 33 -30 88q0 91 62.5 154t160.5 63q87 0 138 -47.5t51 -125.5q0 -102 -41.5 -171.5t-102.5 -69.5q-35 0 -58 27 q-14 15 -14.5 39t5 43.5t17.5 54.5q3 7 4 11q14 44 14 73q0 30 -16 49t-45 19q-37 0 -62 -33.5t-25 -83.5q-1 -19 6 -48q1 -12 8 -23l-30 -128l-17 -74q-9 -37 -11 -45q-11 -55 -8 -103q-121 52 -195.5 164.5t-74.5 249.5z"/>
<glyph unicode="" d="M9 75q0 65 47.5 111t116.5 66t154 23q-35 41 -35 80q0 15 12 47q-6 -2 -19 -2h-20q-82 0 -139.5 53.5t-57.5 132.5q0 74 51.5 135t127.5 79q53 11 102 11h237l-73 -43h-73q39 -23 60.5 -67t21.5 -94q0 -80 -61 -141q-7 -7 -21.5 -20t-18.5 -17.5t-11 -13t-8.5 -16.5 t-1.5 -19q0 -25 25 -47l18 -14q9 -7 19 -17q6 -5 19 -16q8 -7 21 -20q22 -24 35 -42q26 -38 26 -94q0 -103 -90 -164t-215 -61q-100 0 -174.5 45t-74.5 125zM586 620h125v-124h61v124h125v61h-125v125h-61v-125h-125v-61zM169 644q0 -77 44 -144.5t108 -67.5q50 0 74.5 32.5 t24.5 88.5q0 82 -39.5 150t-104.5 68q-50 0 -78.5 -36.5t-28.5 -90.5zM110 101q0 -68 60.5 -107t143.5 -39q75 0 123.5 33t48.5 95q0 47 -28 78t-100 79q-15 3 -34 3q-89 0 -151.5 -36.5t-62.5 -105.5z"/>
<glyph unicode="" d="M9 75q0 65 47.5 111t116.5 66t154 23q-35 41 -35 80q0 15 12 47q-6 -2 -19 -2h-20q-82 0 -139.5 53.5t-57.5 132.5q0 74 51.5 135t127.5 79q53 11 102 11h237l-73 -43h-73q39 -23 60.5 -67t21.5 -94q0 -80 -61 -141q-7 -7 -21.5 -20t-18.5 -17.5t-11 -13t-8.5 -16.5 t-1.5 -19q0 -25 25 -47l18 -14q9 -7 19 -17q6 -5 19 -16q8 -7 21 -20q22 -24 35 -42q26 -38 26 -94q0 -103 -90 -164t-215 -61q-100 0 -174.5 45t-74.5 125zM586 620h125v-124h61v124h125v61h-125v125h-61v-125h-125v-61zM169 644q0 -77 44 -144.5t108 -67.5q50 0 74.5 32.5 t24.5 88.5q0 82 -39.5 150t-104.5 68q-50 0 -78.5 -36.5t-28.5 -90.5zM110 101q0 -68 60.5 -107t143.5 -39q75 0 123.5 33t48.5 95q0 47 -28 78t-100 79q-15 3 -34 3q-89 0 -151.5 -36.5t-62.5 -105.5z"/>
</font>
</defs>
</svg>
